<?xml version="1.0" encoding="UTF-8"?>
<svg version="1.1" xmlns="http://www.w3.org/2000/svg" width="512" height="512">
<path d="M0 0 C0.83081785 -0.00579339 1.66163571 -0.01158677 2.51762986 -0.01755571 C5.30571329 -0.03561471 8.09377651 -0.04648667 10.88189697 -0.05725098 C12.87933536 -0.06842696 14.87677189 -0.07994031 16.87420654 -0.09176636 C23.43696487 -0.12831116 29.99974236 -0.15353839 36.56256104 -0.1763916 C37.67916265 -0.18033747 38.79576426 -0.18428333 39.94620228 -0.18834877 C50.47648711 -0.22476072 61.00677865 -0.25620355 71.53710556 -0.27745819 C85.00575727 -0.30504598 98.47388312 -0.35584603 111.94231582 -0.43793249 C121.41335086 -0.49370246 130.8842431 -0.52269094 140.35543656 -0.5319314 C146.01210257 -0.53819112 151.66815169 -0.55633417 157.32463837 -0.60331726 C162.64689538 -0.64697808 167.968198 -0.65747358 173.29060364 -0.64268875 C175.24170692 -0.64301745 177.19285116 -0.65529755 179.1437912 -0.68053818 C195.72052268 -0.88364959 195.72052268 -0.88364959 200.24502563 2.92172241 C201.46676203 4.31339227 202.65775063 5.7322745 203.82818604 7.1673584 C205.25351246 8.57841245 206.68031261 9.9881443 208.12491083 11.379462 C211.03020119 14.18495949 213.87307885 17.05353047 216.7300415 19.90808105 C218.01841134 21.1918148 219.30697564 22.47535339 220.59571838 23.75871277 C224.0750581 27.22501402 227.55112984 30.69457364 231.02618551 34.16516924 C233.19873403 36.33477684 235.37186399 38.50380041 237.54516983 40.67264938 C244.34977928 47.46361466 251.15240623 54.25655647 257.95213306 61.05241072 C265.794328 68.8901139 273.64303998 76.72121335 281.49742401 84.54670107 C287.57759183 90.60527529 293.65200493 96.66957977 299.7220546 102.73829114 C303.34463509 106.35982317 306.96960968 109.97887924 310.60058212 113.59199905 C314.01023095 116.98520457 317.41269175 120.38545433 320.80972862 123.79128456 C322.05761269 125.03994065 323.30806959 126.28603156 324.56126213 127.52935982 C326.27060755 129.22603495 327.97046073 130.93168904 329.66824341 132.6399231 C330.16667499 133.13029828 330.66510658 133.62067346 331.17864215 134.12590849 C335.69506563 138.70769049 337.07711579 142.53945431 337.08266163 148.91563416 C337.08849382 150.07057625 337.09432602 151.22551834 337.10033494 152.41545868 C337.09655562 153.6799308 337.09277629 154.94440292 337.08888245 156.24719238 C337.09190334 157.60755371 337.09579251 158.96791334 337.10047501 160.32826996 C337.11077269 164.06582541 337.10856865 167.80328513 337.10429442 171.54084849 C337.10183025 175.572414 337.11083777 179.60395627 337.11833191 183.63551331 C337.13109178 191.53535849 337.13287081 199.43516971 337.13053165 207.33502346 C337.12874894 213.75928219 337.13049712 220.1835306 337.13475609 226.60778809 C337.13535128 227.52200181 337.13594647 228.43621553 337.13655969 229.3781327 C337.13777145 231.23541753 337.13898559 233.09270235 337.14020207 234.94998717 C337.1510836 252.37655652 337.14891284 269.80310652 337.14281722 287.22967696 C337.13765351 303.15735565 337.14888798 319.08497307 337.16791544 335.01263964 C337.18731108 351.37431605 337.19554643 367.73596351 337.19179219 384.09765148 C337.18988199 393.28040264 337.19234951 402.46310174 337.20650673 411.64584351 C337.21844387 419.46779242 337.2197997 427.28965725 337.20771656 435.11160737 C337.2018428 439.09903195 337.20068637 443.08630293 337.21271896 447.07371712 C337.22362931 450.7319651 337.22041385 454.38993222 337.20645728 458.04816735 C337.20258748 459.9818876 337.21331562 461.91562058 337.22475415 463.84931087 C337.13814565 477.980168 334.53017023 489.95375228 324.65240479 500.4876709 C320.16391048 504.68933569 315.56323748 507.92658395 309.82818604 510.1673584 C309.05418551 510.50811716 308.28018499 510.84887592 307.48272991 511.19996071 C302.10431975 512.62368464 296.8770784 512.44921797 291.33595276 512.43478394 C290.0645191 512.43931505 288.79308544 512.44384616 287.48312348 512.44851458 C283.9605991 512.46073343 280.43816977 512.46048543 276.91562903 512.45812583 C273.11383774 512.45771737 269.3120768 512.46875966 265.51029968 512.47824097 C258.06379316 512.49484651 250.61731831 512.50035034 243.17079482 512.50146572 C237.11601203 512.50241654 231.06123968 512.50652852 225.00646019 512.51286697 C207.83231721 512.53047924 190.65819922 512.53970603 173.48404715 512.53820603 C172.55838691 512.53812611 171.63272667 512.5380462 170.67901611 512.53796387 C169.75222273 512.53788211 168.82542934 512.53780034 167.87055131 512.53771611 C152.85657988 512.53690352 137.84270884 512.55603438 122.82876644 512.5842406 C107.40497697 512.6129876 91.98123642 512.62677985 76.55741948 512.62505305 C67.90122087 512.62438971 59.24512747 512.62985728 50.58895302 512.65140915 C43.21747104 512.669645 35.84614194 512.6739487 28.47464714 512.6603903 C24.71626612 512.65387233 20.9581782 512.6537006 17.19982529 512.6710968 C13.11810896 512.68979472 9.03706754 512.67724237 4.95533752 512.66183472 C3.18857468 512.67726541 3.18857468 512.67726541 1.38611966 512.69300783 C-11.50205922 512.58573364 -20.68067806 508.40253294 -29.88665771 499.5111084 C-41.07736316 487.43767555 -41.46930062 473.06820106 -41.43251038 457.53764343 C-41.43553294 455.73176408 -41.43942294 453.92588601 -41.44410294 452.1200102 C-41.45437822 447.16960024 -41.4522023 442.21926275 -41.44792235 437.26884687 C-41.44545427 431.92515939 -41.45447033 426.58148932 -41.46195984 421.23780823 C-41.47470672 410.77341591 -41.47650053 400.30904925 -41.47415958 389.84465047 C-41.47237619 381.33809957 -41.4741265 372.83155645 -41.47838402 364.32500648 C-41.47897921 363.11408235 -41.4795744 361.90315821 -41.48018762 360.6555394 C-41.48139938 358.19549598 -41.48261351 355.73545256 -41.48383 353.27540914 C-41.49470557 330.20673278 -41.492543 307.13807104 -41.48644515 284.06939385 C-41.48127638 262.97131202 -41.49253037 241.87327636 -41.51154337 220.77520367 C-41.53092142 199.10573863 -41.5391778 177.43629544 -41.53542012 155.76682168 C-41.53350798 143.60348098 -41.53599693 131.44017957 -41.55013466 119.27684593 C-41.562049 108.92167228 -41.56345273 98.56656212 -41.55134449 88.2113876 C-41.54545614 82.9299272 -41.54435527 77.64858294 -41.55634689 72.36713028 C-41.56720652 67.52793119 -41.56410127 62.68894517 -41.55008521 57.84975604 C-41.54743851 56.10352442 -41.54980394 54.3572761 -41.55782107 52.61106088 C-41.62455198 36.9860155 -40.05539884 23.82557869 -29.06634521 11.8782959 C-20.45356327 3.73807367 -11.7255405 0.02811183 0 0 Z M-15.17181396 28.1673584 C-20.60876737 35.98559388 -19.73004603 44.64825606 -19.67974854 53.77966309 C-19.6843593 55.59578323 -19.6907134 57.41189965 -19.69865751 59.22800827 C-19.71534978 64.21128283 -19.70710486 69.19425083 -19.69471264 74.17752647 C-19.6856641 79.55456999 -19.69963092 84.93156071 -19.71063232 90.30859375 C-19.72842418 100.83932236 -19.72457456 111.36993697 -19.71298176 121.90067005 C-19.70395036 130.45877328 -19.70272218 139.01684455 -19.70707703 147.57495117 C-19.70768996 148.79271641 -19.70830289 150.01048166 -19.7089344 151.26514888 C-19.71021329 153.73897077 -19.71151014 156.21279264 -19.71282476 158.68661451 C-19.72423252 181.88680765 -19.71111377 205.08693757 -19.6896233 228.28712034 C-19.67175216 248.1964501 -19.67485621 268.10568657 -19.69329834 288.01501465 C-19.71470157 311.13186301 -19.72313386 334.24865596 -19.71084929 357.36551285 C-19.70957508 359.83026376 -19.7083176 362.29501469 -19.70707703 364.75976562 C-19.70645992 365.97248854 -19.70584282 367.18521146 -19.70520702 368.43468356 C-19.70175249 376.98308056 -19.70758471 385.53144243 -19.71699524 394.07983398 C-19.7282105 404.49665449 -19.72518505 414.91335442 -19.70387226 425.33016109 C-19.69335557 430.64557469 -19.68925071 435.96078721 -19.70246887 441.27619934 C-19.71438557 446.14181828 -19.70784195 451.00704969 -19.68655866 455.87263346 C-19.68208957 457.63295181 -19.68436577 459.39330289 -19.69406182 461.15360022 C-19.9999051 474.81548492 -19.9999051 474.81548492 -13.13665771 486.22595215 C-12.46763428 486.68099121 -11.79861084 487.13603027 -11.10931396 487.6048584 C-10.4377124 488.07794434 -9.76611084 488.55103027 -9.07415771 489.03845215 C-5.69137346 491.04589496 -2.92482308 491.29460605 0.91987038 491.30437279 C1.97924549 491.30944733 3.0386206 491.31452187 4.13009799 491.31975019 C5.88205401 491.32049683 5.88205401 491.32049683 7.66940308 491.32125854 C8.90701618 491.3256408 10.14462928 491.33002305 11.4197458 491.3345381 C14.86168206 491.34560927 18.30357284 491.35215258 21.74552035 491.35671926 C25.45529523 491.36267452 29.16505333 491.37428459 32.87481689 491.38500977 C41.83771479 491.40953614 50.80061824 491.42416159 59.76353937 491.43706983 C62.29506263 491.4407817 64.82658534 491.44475494 67.35810804 491.4488225 C83.07816808 491.47405975 98.79822899 491.49611311 114.51830482 491.50855064 C118.15984729 491.51148035 121.80138973 491.51444201 125.44293213 491.51745605 C126.80056652 491.51857513 126.80056652 491.51857513 128.18562786 491.51971681 C142.8454984 491.53236874 157.50524761 491.5655894 172.16506143 491.60725789 C187.21583584 491.64968691 202.26654816 491.67324682 217.31738222 491.67847121 C225.76792122 491.68188431 234.21827064 491.69362744 242.66875076 491.72657394 C249.86616981 491.754589 257.06336042 491.76556747 264.26082976 491.75437848 C267.93193124 491.74919541 271.60255443 491.75205487 275.27358627 491.77684402 C279.25760679 491.80352157 283.24097721 491.79126387 287.22506714 491.77536011 C288.95694666 491.79618324 288.95694666 491.79618324 290.72381365 491.81742704 C297.84274022 491.74741833 303.1392018 490.62928885 308.82818604 486.1673584 C313.16673377 481.42447552 314.95372134 477.16540881 314.95123386 470.78503895 C314.95322491 469.66089582 314.95521596 468.5367527 314.95726734 467.37854463 C314.95289808 465.51816081 314.95289808 465.51816081 314.94844055 463.62019348 C314.94929498 462.3068099 314.9501494 460.99342632 314.95102972 459.64024323 C314.95327163 455.98710513 314.94925752 452.33399621 314.94425166 448.68086183 C314.93994301 444.74427246 314.94139388 440.80768481 314.94215393 436.87109375 C314.9426789 430.04815085 314.9395349 423.22521749 314.93391609 416.40227699 C314.92579747 406.53738659 314.9231855 396.67250082 314.9219281 386.80760743 C314.91973815 370.80341699 314.91307961 354.79923163 314.90362549 338.79504395 C314.8944499 323.24621608 314.88736978 307.6973896 314.88311768 292.14855957 C314.88285495 291.19052216 314.88259223 290.23248475 314.88232154 289.2454159 C314.88101653 284.43934094 314.87975282 279.63326597 314.87850964 274.827191 C314.86813881 234.94057657 314.85052204 195.05396782 314.82818604 155.1673584 C313.58727707 155.16371277 312.3463681 155.16006714 311.06785583 155.15631104 C299.3423593 155.11928256 287.61712349 155.06142397 275.89182568 154.98345566 C269.86449828 154.94403821 263.83731573 154.91182148 257.80987549 154.8963623 C251.98713104 154.88115818 246.16478498 154.84664546 240.3422184 154.79904938 C238.12684922 154.78427436 235.91142315 154.77631962 233.69600487 154.77547455 C211.42852723 154.75844632 211.42852723 154.75844632 202.82818604 150.1673584 C201.83302979 149.64915527 200.83787354 149.13095215 199.81256104 148.5970459 C189.98885444 141.76166963 184.28796475 132.87865645 181.82818604 121.1673584 C181.07220523 113.51700274 181.22177757 105.79933794 181.21881104 98.1204834 C181.20381021 95.89559741 181.18707911 93.67072247 181.16870117 91.44586182 C181.12522926 85.62629653 181.10507335 79.80688143 181.08996582 73.98718262 C181.07032181 68.0341308 181.02836016 62.08123945 180.98834229 56.1282959 C180.91325867 44.47469981 180.86283516 32.82114001 180.82818604 21.1673584 C156.81082774 21.0972915 132.79348475 21.04438156 108.77604485 21.01192188 C97.62444518 20.99645001 86.47290901 20.9753543 75.3213501 20.94104004 C65.60217087 20.91114757 55.88303763 20.89178573 46.16381371 20.88509291 C41.01708861 20.88118041 35.87049506 20.87197871 30.7238121 20.85016823 C25.87952546 20.82980556 21.03542455 20.82352419 16.19109917 20.82803535 C14.41334588 20.82721006 12.63558638 20.82124311 10.8578701 20.80974197 C8.42936176 20.79480119 6.00155334 20.79841038 3.57302856 20.80659485 C2.87068018 20.79785632 2.16833179 20.7891178 1.44470012 20.78011447 C-5.28027924 20.84131319 -10.40433333 23.52533778 -15.17181396 28.1673584 Z M201.82818604 36.1673584 C201.75858188 46.60750871 201.70532186 57.04760353 201.67274952 67.48793888 C201.65711401 72.33615902 201.63591438 77.18422005 201.60186768 82.03234863 C201.56919878 86.71373998 201.55131711 91.39497857 201.54355431 96.07647514 C201.53802431 97.85980063 201.52722555 99.64311804 201.51099586 101.42637825 C201.4891213 103.9301452 201.48622326 106.43328619 201.48760986 108.93713379 C201.47143112 110.03549812 201.47143112 110.03549812 201.45492554 111.15605164 C201.49362595 117.64212752 203.35285364 122.93241569 207.57818604 127.9173584 C208.02677979 128.46907715 208.47537354 129.0207959 208.93756104 129.5892334 C214.12672465 133.92068402 219.59596118 134.60326032 226.15020752 134.50793457 C226.95102249 134.50837265 227.75183746 134.50881073 228.57691956 134.50926208 C231.20129511 134.50718636 233.82501702 134.48391354 236.44927979 134.46032715 C238.27773184 134.45472685 240.10618842 134.4504588 241.93464661 134.44746399 C246.73020005 134.43604934 251.52547779 134.40661144 256.32092285 134.37335205 C261.22109244 134.34257809 266.12130689 134.32894303 271.02154541 134.31384277 C280.62387961 134.28173835 290.22600983 134.23058312 299.82818604 134.1673584 C295.09947117 128.4838795 290.0419526 123.23893477 284.80938721 118.01916504 C283.92254242 117.13056793 283.03569763 116.24197083 282.12197876 115.32644653 C279.70892366 112.9097646 277.2936665 110.49532801 274.87720656 108.08205342 C272.34441431 105.55180565 269.81407707 103.01910463 267.28334045 100.48680115 C263.041051 96.24269808 258.79666958 92.00069573 254.55108643 87.7598877 C249.63782829 82.8520917 244.72821133 77.94067523 239.82042903 73.02740389 C235.60220659 68.80465235 231.38204983 64.58384138 227.16025144 60.36466497 C224.64024705 57.84622177 222.12092853 55.32710248 219.6033535 52.80623055 C216.80509043 50.00455805 214.00277592 47.2069605 211.20001221 44.40979004 C209.94316872 43.1499102 209.94316872 43.1499102 208.66093445 41.86457825 C207.90254272 41.10900635 207.144151 40.35343445 206.36277771 39.57496643 C205.70042712 38.91299287 205.03807653 38.25101931 204.35565472 37.56898594 C203.05090074 36.05467439 203.05090074 36.05467439 201.82818604 36.1673584 Z " fill="#000000" transform="translate(108.17181396484375,-0.1673583984375)"/>
<path d="M0 0 C0.70226088 -0.00694553 1.40452175 -0.01389106 2.12806326 -0.02104706 C4.48125215 -0.03934369 6.83343589 -0.0290461 9.18666077 -0.01878357 C10.8737056 -0.02584076 12.5607441 -0.03458493 14.24777222 -0.04489136 C18.83047305 -0.06741817 23.41282906 -0.06443792 27.99556422 -0.05556989 C31.82023773 -0.05046431 35.64484619 -0.05774908 39.469513 -0.06504196 C48.49182307 -0.08205156 57.51396405 -0.07846461 66.53627014 -0.06175232 C75.84655768 -0.04482967 85.15637642 -0.06066505 94.46661276 -0.0929752 C102.45824815 -0.11965939 110.44973751 -0.12695028 118.44141299 -0.11846012 C123.21529928 -0.11352749 127.98890347 -0.11576459 132.76275444 -0.13624763 C137.25188318 -0.1545864 141.74033692 -0.14866846 146.22942924 -0.12404823 C147.87697512 -0.11903455 149.52457226 -0.12254461 151.17207718 -0.13519669 C153.42172983 -0.15110624 155.66915398 -0.13620042 157.91870117 -0.11352539 C159.17728408 -0.11293908 160.43586699 -0.11235277 161.73258877 -0.1117487 C165.92110514 0.68567875 167.38910461 2.23204963 170.02284241 5.5146637 C171.36703146 9.37920723 171.09906551 11.2501247 169.96034241 15.2021637 C167.64958394 19.15281526 166.22029223 19.84753815 162.02284241 21.5146637 C158.70883179 21.89218712 158.70883179 21.89218712 155.03968811 21.89561462 C154.36092526 21.9002946 153.68216242 21.90497457 152.982831 21.90979636 C150.72122644 21.92170852 148.4602321 21.91230442 146.19862366 21.90284729 C144.57202299 21.90691469 142.94542508 21.91225751 141.3188324 21.91877747 C136.90976544 21.9324369 132.50090942 21.9271581 128.09183884 21.91764021 C123.47418913 21.91003651 118.85655729 21.9170912 114.23890686 21.92179871 C106.4848863 21.92725418 98.7309515 21.92007009 90.97694397 21.90577698 C82.01664894 21.88945086 73.05655872 21.89473951 64.09626865 21.91125619 C56.39843526 21.92487697 48.70066347 21.92678782 41.00282192 21.91894019 C36.4072986 21.91426693 31.81187149 21.91362928 27.21635437 21.92354965 C22.89559483 21.93222565 18.57509894 21.92618588 14.25436783 21.90886688 C12.67013105 21.90490542 11.08587202 21.90603028 9.50164413 21.91265488 C7.33613037 21.92087423 5.17145716 21.91054516 3.0059967 21.89561462 C1.79517929 21.89448355 0.58436188 21.89335247 -0.66314697 21.89218712 C-4.40470093 21.46595908 -6.79216324 20.50406501 -9.97715759 18.5146637 C-12.42803173 14.53199323 -13.12332499 12.47287218 -12.41465759 7.8271637 C-9.61930812 1.38570622 -6.94880847 0.01550204 0 0 Z " fill="#000000" transform="translate(176.97715759277344,256.48533630371094)"/>
<path d="M0 0 C0.69409377 -0.00538554 1.38818754 -0.01077108 2.10331446 -0.01631981 C4.42872166 -0.03062548 6.75356171 -0.02348953 9.07899475 -0.01637268 C10.74633238 -0.02207491 12.4136661 -0.0290386 14.08099365 -0.03717041 C18.60992985 -0.05513344 23.13867263 -0.05392753 27.66763377 -0.04822803 C31.44756169 -0.04514066 35.22745222 -0.0512236 39.00737482 -0.05726677 C47.92418333 -0.07132076 56.84089605 -0.06974349 65.75770569 -0.05836487 C74.9588667 -0.0468829 84.15973626 -0.06095863 93.36085886 -0.08776134 C101.25906235 -0.10990785 109.15717429 -0.11655809 117.05540663 -0.11068493 C121.77336673 -0.10731161 126.49114 -0.10975522 131.20907402 -0.12693596 C135.64558577 -0.14238631 140.08166532 -0.13847095 144.51815987 -0.11963081 C146.14635764 -0.11593959 147.7745873 -0.11906894 149.40275574 -0.1295166 C151.62585603 -0.14269266 153.84751836 -0.13121117 156.07055664 -0.11352539 C157.93630797 -0.11321146 157.93630797 -0.11321146 159.83975124 -0.1128912 C163.72732105 0.48422276 165.35384115 1.61571662 168.09877014 4.38768005 C170.03501453 8.66355307 170.33124701 10.61275717 168.97377014 15.13768005 C167.11180174 18.36509194 166.25891417 19.58360457 163.09877014 21.38768005 C159.96559238 21.76799679 159.96559238 21.76799679 156.19754028 21.77536011 C155.50344651 21.78074565 154.80935274 21.78613118 154.09422582 21.79167992 C151.76881862 21.80598559 149.44397858 21.79884964 147.11854553 21.79173279 C145.4512079 21.79743502 143.78387418 21.80439871 142.11654663 21.81253052 C137.58761043 21.83049355 133.05886765 21.82928764 128.52990651 21.82358813 C124.74997859 21.82050076 120.97008806 21.8265837 117.19016546 21.83262688 C108.27335695 21.84668087 99.35664423 21.8451036 90.43983459 21.83372498 C81.23867359 21.822243 72.03780402 21.83631874 62.83668143 21.86312145 C54.93847793 21.88526796 47.040366 21.8919182 39.14213365 21.88604504 C34.42417355 21.88267172 29.70640028 21.88511533 24.98846626 21.90229607 C20.55195452 21.91774641 16.11587497 21.91383106 11.67938042 21.89499092 C10.05118264 21.8912997 8.42295298 21.89442904 6.79478455 21.90487671 C4.57168426 21.91805277 2.35002192 21.90657127 0.12698364 21.8888855 C-1.11685058 21.88867621 -2.3606848 21.88846693 -3.64221096 21.8882513 C-7.52978077 21.29113734 -9.15630086 20.15964349 -11.90122986 17.38768005 C-13.83747424 13.11180704 -14.13370672 11.16260294 -12.77622986 6.63768005 C-9.40565059 0.79534265 -6.64215322 0.01297973 0 0 Z " fill="#000000" transform="translate(177.90122985839844,346.61231994628906)"/>
<path d="M0 0 C0.69424263 -0.00694553 1.38848526 -0.01389106 2.10376555 -0.02104706 C4.42388158 -0.03930469 6.74297362 -0.02905701 9.06312561 -0.01878357 C10.72899134 -0.02584273 12.39485065 -0.03458774 14.06069946 -0.04489136 C18.5814283 -0.06739596 23.10180722 -0.06444311 27.62257075 -0.05556989 C31.39749388 -0.05046014 35.17235124 -0.05775248 38.94726759 -0.06504196 C47.85313289 -0.08204448 56.75882686 -0.07847171 65.66468811 -0.06175232 C74.85057882 -0.04483014 84.03599436 -0.06066599 93.22183317 -0.0929752 C101.11074557 -0.11967092 108.99951005 -0.12694717 116.88846308 -0.11846012 C121.5992106 -0.11353089 126.3096722 -0.11574624 131.02038383 -0.13624763 C135.45043601 -0.15460453 139.87980473 -0.14864626 144.30982018 -0.12404823 C145.93437102 -0.11904033 147.55897394 -0.12252966 149.18348312 -0.13519669 C151.40427481 -0.15114148 153.6228197 -0.13616746 155.84350586 -0.11352539 C157.08511947 -0.11293908 158.32673307 -0.11235277 159.60597134 -0.1117487 C164.1286223 0.7266104 165.76359304 2.26795474 168.98524475 5.5146637 C170.42439962 9.40884745 170.07605956 11.21699293 168.86024475 15.2021637 C166.7850981 18.86825611 165.73282007 19.76202019 161.98524475 21.5146637 C158.76304722 21.89498043 158.76304722 21.89498043 155.04641724 21.90234375 C154.36034171 21.90772929 153.67426618 21.91311483 152.96740049 21.91866356 C150.67506889 21.93293833 148.38331514 21.92584093 146.09095764 21.91871643 C144.44479916 21.92442027 142.79864463 21.93138459 141.15249634 21.93951416 C136.68553285 21.95745925 132.21876565 21.95627465 127.75177693 21.95057178 C124.0215995 21.94748185 120.29145988 21.95357019 116.56128782 21.95961052 C107.76092443 21.97365859 98.96065811 21.97209213 90.16029358 21.96070862 C81.08353025 21.94922698 72.00706236 21.96330317 62.93033797 21.99010509 C55.13485765 22.0122613 47.33947008 22.01889966 39.54396051 22.01302868 C34.88913965 22.00965772 30.23450819 22.01208338 25.57971382 22.02927971 C21.20227969 22.04474552 16.82528326 22.0407975 12.44786644 22.02197456 C10.84266366 22.01828765 9.23742848 22.02140018 7.63225555 22.03186035 C5.43801834 22.04506595 3.24523115 22.03352884 1.05105591 22.01586914 C-0.17580901 22.01565986 -1.40267393 22.01545057 -2.66671658 22.01523495 C-6.680687 21.41509905 -8.86300411 20.02416245 -12.01475525 17.5146637 C-13.94303356 14.05064944 -14.23922643 10.61207836 -13.45225525 6.7646637 C-9.94561241 1.27600534 -6.34545476 0.01434955 0 0 Z " fill="#000000" transform="translate(178.01475524902344,301.48533630371094)"/>
<path d="M0 0 C1.67153893 -0.00788544 1.67153893 -0.00788544 3.37684631 -0.01593018 C7.05931628 -0.02913075 10.74135377 -0.0203915 14.42382812 -0.01025391 C16.98303307 -0.01227461 19.54223746 -0.01518603 22.10144043 -0.01895142 C27.46466079 -0.02337487 32.82772624 -0.01722926 38.19091797 -0.00292969 C44.38546997 0.0133961 50.57972571 0.00810726 56.77427053 -0.0084089 C62.74102329 -0.02367905 68.70768424 -0.02204269 74.67445374 -0.0132637 C77.21021059 -0.01126151 79.74597499 -0.01372163 82.28172302 -0.02070236 C85.82473825 -0.02831535 89.3671835 -0.01671387 92.91015625 0 C93.95965958 -0.00607269 95.0091629 -0.01214539 96.09046936 -0.0184021 C102.38966464 0.0366886 106.10579033 0.6371471 110.76757812 5.13818359 C112.5075424 8.43495801 112.399148 10.70874748 111.95507812 14.38818359 C108.87815505 19.92664513 108.87815505 19.92664513 105.95507812 21.38818359 C104.39767869 21.49115996 102.83597495 21.53197717 101.27520752 21.54208374 C100.28825897 21.5506842 99.30131042 21.55928467 98.28445435 21.56814575 C97.19768402 21.5724057 96.1109137 21.57666565 94.99121094 21.58105469 C93.84963531 21.58923218 92.70805969 21.59740967 91.53189087 21.60583496 C87.74066702 21.63071972 83.94948068 21.64721277 80.15820312 21.66162109 C78.86568382 21.66694477 77.57316452 21.67226845 76.24147797 21.67775345 C70.80959803 21.69898956 65.37773033 21.71811916 59.94581985 21.72937584 C52.1644031 21.74560791 44.38348626 21.77876517 36.60225797 21.83577669 C30.46946855 21.87917584 24.33687493 21.89512394 18.20394135 21.90150833 C15.59640698 21.90823395 12.98888026 21.92348968 10.38144684 21.94739914 C6.73275103 21.97894803 3.08531932 21.97910199 -0.56347656 21.97167969 C-1.64214996 21.98808502 -2.72082336 22.00449036 -3.83218384 22.02139282 C-12.00759961 21.95326504 -12.00759961 21.95326504 -15.69610596 19.03140259 C-18.45648782 15.92503154 -19.12778626 14.53140307 -19.04492188 10.38818359 C-17.93244763 6.74174024 -17.01636236 4.23655546 -14.11804199 1.70541382 C-9.4599192 -0.29119546 -5.01699396 -0.0290296 0 0 Z " fill="#000000" transform="translate(183.044921875,391.61181640625)"/>
</svg>
