<?xml version="1.0" encoding="UTF-8"?>
<svg version="1.1" xmlns="http://www.w3.org/2000/svg" width="512" height="507">
<path d="M0 0 C10.78560893 5.58469305 19.30442378 15.71000507 27.78675842 24.22065735 C29.22230391 25.654853 30.65814595 27.08875187 32.0942688 28.52236938 C35.08527315 31.51044221 38.07267302 34.50205934 41.05751038 37.49629211 C44.87938405 41.32961097 48.71023789 45.15381018 52.5437994 48.97543621 C55.5028074 51.92721632 58.45703459 54.88374415 61.40983772 57.84173012 C62.82094714 59.25417077 64.23353569 60.66513534 65.64764214 62.07457542 C67.61938968 64.04123685 69.58460158 66.01420725 71.54823303 67.9889679 C72.12953476 68.56622116 72.71083649 69.14347443 73.30975342 69.73822021 C80.69691467 77.20302139 80.69691467 77.20302139 80.69691467 81.3964386 C107.09691467 81.3964386 133.49691467 81.3964386 160.69691467 81.3964386 C160.69691467 73.4764386 160.69691467 65.5564386 160.69691467 57.3964386 C165.93694153 42.98636475 170.63489981 36.66495754 184.00160217 30.29878235 C192.20980434 27.55081902 201.20418778 28.23290844 209.74769592 28.22846985 C211.21206697 28.22524951 212.6764377 28.22188488 214.14080811 28.21838379 C217.20110316 28.21242032 220.26137009 28.21054101 223.32167053 28.21113586 C227.21479616 28.21123732 231.10773876 28.19758952 235.00082111 28.18036366 C238.02341517 28.16916507 241.04596606 28.16721905 244.06857872 28.16774559 C245.50248533 28.16657711 246.93639348 28.16222016 248.37027931 28.15441322 C262.44096978 28.08497151 275.17846995 28.77769209 286.02894592 38.5605011 C292.67618312 45.87713221 296.00033372 54.24185815 295.98744202 64.06318665 C295.99415924 64.80717209 296.00087646 65.55115753 296.00779724 66.31768799 C296.02671212 68.7645801 296.0306986 71.21119678 296.03285217 73.65815735 C296.03928636 75.37201039 296.04601517 77.08586235 296.05302429 78.79971313 C296.06498205 82.38984215 296.06870684 85.97987507 296.06752014 89.57002258 C296.06731744 94.14495744 296.09457578 98.71926774 296.12906456 103.29405499 C296.15143197 106.83480595 296.15535463 110.37540918 296.15430069 113.91622353 C296.15664355 115.60134335 296.16539199 117.28646807 296.18096542 118.97151756 C296.28229325 131.07128401 295.39780819 141.85620299 287.45863342 151.6151886 C280.84607532 158.30105665 272.15689692 162.66618292 262.69448853 162.82524109 C261.98469345 162.82231049 261.27489838 162.81937988 260.54359436 162.81636047 C259.77166245 162.82483002 258.99973053 162.83329956 258.20440674 162.84202576 C255.67569576 162.86524786 253.14759881 162.86642125 250.61878967 162.8651886 C248.8429287 162.87230068 247.06707 162.88000119 245.29121399 162.88825989 C241.57595937 162.90167197 237.86091712 162.90328895 234.14564514 162.89741516 C229.4137735 162.89153164 224.68293234 162.92206976 219.95125961 162.96253204 C216.28434378 162.98854503 212.61767133 162.99127404 208.95067596 162.98764038 C207.20776538 162.98931991 205.46484211 162.99884839 203.72202301 163.01678467 C192.11939347 163.1230372 182.03969832 162.32154313 172.32191467 155.1464386 C159.60394745 141.82285389 160.69691467 129.64005483 160.69691467 110.3964386 C134.29691467 110.3964386 107.89691467 110.3964386 80.69691467 110.3964386 C80.03691467 112.0464386 79.37691467 113.6964386 78.69691467 115.3964386 C72.40262111 123.53792397 64.56672774 130.67433048 57.28675842 137.93940735 C56.10794791 139.11889365 54.92928568 140.29852817 53.75076294 141.478302 C51.29750131 143.93302655 48.84246962 146.38596266 46.38612366 148.83760071 C43.2572362 151.96077908 40.13287834 155.08844422 37.00983334 158.21746349 C34.58282986 160.6481 32.15342568 163.07632584 29.72331429 165.50385475 C28.57088159 166.65562641 27.41917442 167.80812455 26.2682476 168.96140099 C9.99762024 185.25797292 9.99762024 185.25797292 0.69691467 191.3964386 C0.03691467 191.3964386 -0.62308533 191.3964386 -1.30308533 191.3964386 C-1.30308533 215.8164386 -1.30308533 240.2364386 -1.30308533 265.3964386 C7.27691467 265.3964386 15.85691467 265.3964386 24.69691467 265.3964386 C37.76300947 270.84064476 43.66756612 274.15107436 49.69691467 286.3964386 C51.69691467 292.3964386 51.69691467 292.3964386 51.69691467 318.3964386 C87.66691467 318.3964386 123.63691467 318.3964386 160.69691467 318.3964386 C160.69691467 310.1464386 160.69691467 301.8964386 160.69691467 293.3964386 C164.89141236 281.86156995 169.10958944 274.66255519 179.57972717 268.3339386 C185.15935676 265.86325391 190.52534662 265.09804381 196.56898499 265.10591125 C197.32287003 265.09919403 198.07675507 265.09247681 198.85348511 265.08555603 C201.32740509 265.06667487 203.80105227 265.06265665 206.27503967 265.0605011 C208.0098837 265.05406549 209.74472667 265.04733657 211.47956848 265.04032898 C215.11079929 265.0283803 218.74193514 265.02464559 222.3731842 265.02583313 C227.00077411 265.02603599 231.62774765 264.99875706 236.2551918 264.96428871 C239.83797438 264.9419264 243.42061093 264.93799846 247.00345612 264.93905258 C248.7081133 264.93670975 250.41277533 264.92796149 252.11736298 264.91238785 C265.85898178 264.79860748 276.22382143 266.04749118 286.53285217 276.0292511 C293.32808777 283.46230664 295.99349053 291.03488655 296.00331116 301.1608429 C296.01163467 301.90336807 296.01995819 302.64589325 296.02853394 303.41091919 C296.05248019 305.84755316 296.06138821 308.28391846 296.06800842 310.72065735 C296.07698832 312.43068515 296.08611039 314.1407122 296.09536743 315.85073853 C296.11181963 319.43068848 296.11955031 323.01054536 296.12245178 326.5905304 C296.12782345 331.14864624 296.165469 335.70587081 296.21119595 340.26373577 C296.24113515 343.79595018 296.24817902 347.32795462 296.24917793 350.86028481 C296.25334894 352.53901553 296.26565585 354.21774872 296.28669548 355.89635277 C296.43586409 368.82921308 295.00046595 379.93945103 285.56800842 389.7167511 C274.77777411 399.40318273 261.93586081 399.86522595 248.11097717 399.83003235 C246.5211617 399.83460628 244.9313482 399.83991541 243.34153748 399.84591675 C240.02501851 399.85480025 236.70874095 399.85248001 233.39222717 399.84248352 C229.17741593 399.83100677 224.96344419 399.85120943 220.74874306 399.88040066 C217.46953689 399.89889662 214.19052692 399.8984437 210.91128159 399.89276314 C209.35900572 399.89261152 207.80671517 399.89852153 206.2544899 399.91105461 C193.68147087 399.99829026 181.56299518 398.90999488 171.63050842 390.3808136 C159.09983677 377.5210536 160.69691467 364.94870891 160.69691467 346.3964386 C124.72691467 346.3964386 88.75691467 346.3964386 51.69691467 346.3964386 C51.69691467 354.9764386 51.69691467 363.5564386 51.69691467 372.3964386 C47.13223849 383.80812906 42.61051683 391.22293469 31.34925842 396.4589386 C22.32936357 399.6471194 13.76719285 399.7068331 4.29847717 399.69721985 C2.69718822 399.70111383 1.09590028 399.70544993 -0.50538635 399.71020508 C-3.85237484 399.71764052 -7.1992578 399.71739565 -10.54624939 399.71211243 C-14.81174006 399.70632313 -19.07679574 399.72324861 -23.34221458 399.7464571 C-26.64701312 399.76126904 -29.95170872 399.76205602 -33.25653458 399.75894737 C-34.8280333 399.7594569 -36.39953836 399.76462457 -37.97100449 399.77475929 C-51.55925304 399.85164656 -62.49881306 398.29323734 -72.99058533 389.0214386 C-82.89199505 377.78200053 -83.77239782 366.94596793 -83.73667908 352.40034485 C-83.74125041 350.75946845 -83.74655879 349.11859395 -83.75256348 347.47772217 C-83.76145517 344.05268026 -83.75911663 340.62787202 -83.74913025 337.20283508 C-83.7376436 332.84095771 -83.75786717 328.47989033 -83.78704739 324.11811924 C-83.80550339 320.73347967 -83.80509838 317.34903089 -83.79940987 313.96435356 C-83.79925781 312.35739442 -83.80520525 310.75042138 -83.81770134 309.14351082 C-83.90426491 296.19043324 -82.35485052 285.30812149 -73.30308533 275.3964386 C-66.36333281 268.75841446 -59.02327021 265.24990704 -49.44371033 265.29878235 C-48.32867126 265.302005 -47.2136322 265.30522766 -46.06480408 265.30854797 C-44.90593689 265.31692688 -43.7470697 265.32530579 -42.55308533 265.3339386 C-41.37874939 265.33845032 -40.20441345 265.34296204 -38.99449158 265.34761047 C-36.0973046 265.35938766 -33.20022079 265.37583534 -30.30308533 265.3964386 C-30.22518429 255.85127376 -30.1958026 246.30753908 -30.22792721 236.76210594 C-30.24133008 232.32934662 -30.23818053 227.89790025 -30.19688416 223.46528625 C-30.15762335 219.18523048 -30.16225941 214.9072429 -30.19700813 210.62717056 C-30.2025962 208.99653027 -30.19251123 207.36575672 -30.16631889 205.73531723 C-29.69393267 197.08851319 -29.69393267 197.08851319 -32.90280151 189.49526978 C-35.04086685 188.12147641 -35.04086685 188.12147641 -37.4992981 186.96351624 C-41.13250742 184.93286247 -43.73490381 182.32357729 -46.64561462 179.37861633 C-47.21754736 178.80616527 -47.78948009 178.2337142 -48.37874413 177.64391613 C-50.21798614 175.79550997 -52.04755483 173.93783163 -53.87730408 172.08003235 C-55.17212493 170.77705873 -56.46769611 169.47483036 -57.76397705 168.17330933 C-61.15636486 164.76390129 -64.54006444 161.34600855 -67.92149353 157.92573547 C-73.3406981 152.44706352 -78.77281587 146.981202 -84.20553017 141.51593208 C-86.09271452 139.61487615 -87.97598124 137.71000825 -89.8586731 135.80450439 C-91.02194184 134.63120568 -92.18529302 133.45798869 -93.34873962 132.28486633 C-94.12271339 131.49842995 -94.12271339 131.49842995 -94.912323 130.69610596 C-97.36788783 128.22575402 -99.86007548 125.88703523 -102.54949951 123.67147827 C-110.65125523 116.97772804 -114.19226612 108.35268116 -115.61558533 98.15815735 C-116.20102174 88.15085363 -112.40658416 78.58368116 -105.90855408 71.13471985 C-91.96570131 56.48113696 -91.96570131 56.48113696 -84.66343689 50.27436829 C-79.77021773 46.00937546 -75.2785553 41.38778526 -70.75621033 36.73628235 C-68.92364668 34.87159332 -67.09028856 33.0076848 -65.25621033 31.14448547 C-62.4001429 28.24071542 -59.54890045 25.33260576 -56.71324158 22.40888977 C-53.95278626 19.56376273 -51.16739143 16.74372709 -48.38121033 13.92378235 C-47.54954346 13.05801071 -46.71787659 12.19223907 -45.86100769 11.30023193 C-33.66839133 -0.94750925 -16.63615392 -7.37136654 0 0 Z M-21.0355072 28.44526672 C-21.74183289 29.08730042 -22.44815857 29.72933411 -23.17588806 30.39082336 C-26.37430666 33.40643324 -29.49712506 36.48609718 -32.58433533 39.6151886 C-33.57101196 40.60754517 -33.57101196 40.60754517 -34.57762146 41.61994934 C-36.65525807 43.70966595 -38.72959159 45.80261175 -40.80308533 47.8964386 C-43.53966683 50.6598556 -46.27970796 53.41977582 -49.02183533 56.1776886 C-49.63353577 56.79768738 -50.24523621 57.41768616 -50.87547302 58.05647278 C-54.59840139 61.8000967 -58.45017569 65.3275277 -62.44508362 68.77888489 C-66.87871122 72.63874721 -71.04352499 76.78372667 -75.24058533 80.8964386 C-75.72051941 81.35325012 -76.20045349 81.81006165 -76.69493103 82.28071594 C-78.10859889 83.62731632 -79.5010743 84.99605395 -80.89292908 86.3651886 C-81.71655945 87.16376282 -82.54018982 87.96233704 -83.38877869 88.78511047 C-85.76608496 92.02802182 -86.11767289 94.41578295 -86.30308533 98.3964386 C-85.27465932 100.5979405 -85.27465932 100.5979405 -83.42808533 102.2714386 C-82.45548767 103.27110657 -82.45548767 103.27110657 -81.46324158 104.29096985 C-80.75039001 104.98577454 -80.03753845 105.68057922 -79.30308533 106.3964386 C-78.57992126 107.14280579 -77.8567572 107.88917297 -77.11167908 108.65815735 C-73.78326526 112.06761081 -70.39713965 115.32460732 -66.77232361 118.41621399 C-61.69507612 122.85005442 -57.00798229 127.63997755 -52.29136658 132.4511261 C-51.35123353 133.40331558 -50.41056452 134.35497615 -49.46939087 135.30613708 C-45.50968804 139.30817724 -41.55315927 143.31322202 -37.6124115 147.3339386 C-35.65699487 149.32848202 -33.69637639 151.31762303 -31.72964478 153.30101013 C-29.88508783 155.16152441 -28.04835758 157.02983827 -26.22039795 158.90666199 C-25.3857048 159.74488495 -24.55101166 160.58310791 -23.69102478 161.44673157 C-22.9623671 162.1872879 -22.23370941 162.92784424 -21.48297119 163.69084167 C-18.90722054 165.70617306 -17.58449605 166.39247264 -14.30308533 166.3964386 C-9.43778478 163.80008917 -5.71551021 160.10557405 -1.854599 156.23847961 C-1.24085419 155.63145203 -0.62710938 155.02442444 0.00523376 154.39900208 C2.01842943 152.40469916 4.02409775 150.40303693 6.02894592 148.40034485 C7.43030402 147.00541726 8.8318108 145.61063903 10.23345947 144.21600342 C13.1629137 141.29849758 16.08823152 138.37691435 19.01112366 135.45283508 C22.75817287 131.70558203 26.51882637 127.97230969 30.28311634 124.24238682 C33.17838979 121.3693307 36.06454749 118.48725048 38.94820213 115.60253716 C40.33128864 114.22181135 41.71762084 112.84432889 43.10723305 111.47017097 C45.04624382 109.55072837 46.97220255 107.61905998 48.895401 105.68379211 C49.75951347 104.83653816 49.75951347 104.83653816 50.64108276 103.97216797 C52.90165964 101.67531701 54.56219676 99.748266 55.72181702 96.71981812 C55.6903877 93.7874743 55.11770207 93.03376969 53.09999084 90.93501282 C52.44670807 90.24453857 51.79342529 89.55406433 51.12034607 88.84266663 C50.32061371 88.03541138 49.52088135 87.22815613 48.69691467 86.3964386 C47.73234322 85.40615456 46.76823135 84.41542274 45.80448914 83.42433167 C42.31106794 79.85042552 38.78052678 76.31413727 35.24769592 72.7792511 C33.94441661 71.47275342 32.64121045 70.16618276 31.33807373 68.85954285 C28.62083229 66.13634525 25.9015642 63.41519012 23.18104553 60.69526672 C19.69572624 57.21004961 16.21737118 53.71796883 12.74068928 50.22413826 C10.05810482 47.53044734 7.37099996 44.84130142 4.68259239 42.15342331 C3.39757325 40.86722484 2.11417366 39.57940617 0.83243752 38.28993607 C-0.95501851 36.49269457 -2.74868442 34.70188519 -4.54405212 32.91255188 C-5.33352486 32.11464989 -5.33352486 32.11464989 -6.13894653 31.30062866 C-11.17295726 26.30955072 -15.14267725 23.07971139 -21.0355072 28.44526672 Z M191.30897522 59.00849915 C189.15959153 62.19237343 189.18945306 64.2909876 189.17933655 68.12104797 C189.17232727 68.78820328 189.16531799 69.45535858 189.15809631 70.14273071 C189.14052837 72.34231002 189.15213315 74.54059681 189.16566467 76.7401886 C189.16296937 78.2718887 189.15908663 79.80358712 189.15406799 81.33528137 C189.14817463 84.5431703 189.1567301 87.75061328 189.1754303 90.95845032 C189.19822044 95.06789903 189.18509639 99.17630281 189.16114044 103.2857132 C189.14667767 106.44793046 189.1512905 109.60990048 189.16165161 112.77212524 C189.16431761 114.28717167 189.16105355 115.80224064 189.1517334 117.31726074 C189.14155907 119.43605392 189.15707737 121.55316145 189.17933655 123.67182922 C189.18251892 124.87665955 189.18570129 126.08148987 189.1889801 127.3228302 C189.48469541 130.43986913 189.48469541 130.43986913 191.30897522 132.78437805 C194.4928495 134.93376174 196.59146368 134.90390021 200.42152405 134.91401672 C201.08867935 134.921026 201.75583466 134.92803528 202.44320679 134.93525696 C204.6427861 134.9528249 206.84107288 134.94122012 209.04066467 134.9276886 C210.57236477 134.9303839 212.1040632 134.93426664 213.63575745 134.93928528 C216.84364638 134.94517864 220.05108936 134.93662317 223.25892639 134.91792297 C227.3683751 134.89513283 231.47677889 134.90825688 235.58618927 134.93221283 C238.74840653 134.9466756 241.91037656 134.94206278 245.07260132 134.93170166 C246.58764775 134.92903566 248.10271671 134.93229972 249.61773682 134.94161987 C251.73652999 134.9517942 253.85363752 134.9362759 255.9723053 134.91401672 C257.17713562 134.91083435 258.38196594 134.90765198 259.62330627 134.90437317 C262.7403452 134.60865786 262.7403452 134.60865786 265.08485413 132.78437805 C267.23423782 129.60050377 267.20437629 127.50188959 267.2144928 123.67182922 C267.22150208 123.00467392 267.22851135 122.33751862 267.23573303 121.65014648 C267.25330098 119.45056717 267.2416962 117.25228039 267.22816467 115.0526886 C267.23085997 113.5209885 267.23474271 111.98929007 267.23976135 110.45759583 C267.24565471 107.24970689 267.23709924 104.04226392 267.21839905 100.83442688 C267.19560891 96.72497817 267.20873296 92.61657438 267.2326889 88.507164 C267.24715167 85.34494674 267.24253885 82.18297672 267.23217773 79.02075195 C267.22951174 77.50570553 267.23277579 75.99063656 267.24209595 74.47561646 C267.25227028 72.35682328 267.23675198 70.23971575 267.2144928 68.12104797 C267.21131042 66.91621765 267.20812805 65.71138733 267.20484924 64.470047 C266.90913393 61.35300807 266.90913393 61.35300807 265.08485413 59.00849915 C261.90097984 56.85911545 259.80236567 56.88897699 255.9723053 56.87886047 C255.30514999 56.8718512 254.63799469 56.86484192 253.95062256 56.85762024 C251.75104325 56.84005229 249.55275646 56.85165707 247.35316467 56.8651886 C245.82146458 56.8624933 244.28976615 56.85861056 242.7580719 56.85359192 C239.55018297 56.84769856 236.34273999 56.85625403 233.13490295 56.87495422 C229.02545424 56.89774436 224.91705046 56.88462031 220.80764008 56.86066437 C217.64542281 56.8462016 214.48345279 56.85081442 211.32122803 56.86117554 C209.8061816 56.86384153 208.29111263 56.86057748 206.77609253 56.85125732 C204.65729935 56.84108299 202.54019183 56.85660129 200.42152405 56.87886047 C198.61427856 56.88363403 198.61427856 56.88363403 196.77052307 56.88850403 C193.65348414 57.18421934 193.65348414 57.18421934 191.30897522 59.00849915 Z M-54.30308533 297.3964386 C-55.05270447 300.54336542 -55.05270447 300.54336542 -54.93418884 304.12104797 C-54.94134415 304.78820328 -54.94849945 305.45535858 -54.95587158 306.14273071 C-54.9727465 308.34258527 -54.95336717 310.54039811 -54.93199158 312.7401886 C-54.93282041 314.2718879 -54.93528033 315.80358712 -54.93930054 317.33528137 C-54.94215766 320.54327715 -54.92746697 323.7505744 -54.90000916 326.95845032 C-54.8659254 331.06793432 -54.87194475 335.17616941 -54.89067173 339.2857132 C-54.90124678 342.4479562 -54.89229954 345.6099092 -54.87728691 348.77212524 C-54.87210827 350.28716165 -54.87258307 351.80222838 -54.87883186 353.31726074 C-54.88429065 355.4361112 -54.86389257 357.55318171 -54.83653259 359.67182922 C-54.83033401 360.87665955 -54.82413544 362.08148987 -54.81774902 363.3228302 C-54.51398853 366.43863661 -54.51398853 366.43863661 -52.69577026 368.78338623 C-49.48877753 370.94541231 -47.34307833 370.91033386 -43.48667908 370.92988586 C-42.8097702 370.93850143 -42.13286133 370.947117 -41.43544006 370.95599365 C-39.20343013 370.97865092 -36.9726759 370.97191675 -34.74058533 370.96284485 C-33.18646369 370.96808034 -31.63234525 370.97435654 -30.07823181 370.98162842 C-26.82327812 370.99203188 -23.56876163 370.98747195 -20.31382751 370.97285461 C-16.14369554 370.95565966 -11.97494049 370.97916922 -7.80496216 371.01434422 C-4.5964089 371.03630943 -1.38818564 371.03487916 1.82041931 371.0265789 C3.35780854 371.02575901 4.89522192 371.03262975 6.43254089 371.04734993 C8.58272353 371.06478344 10.73042542 371.05026969 12.88050842 371.02754211 C14.10310364 371.02658035 15.32569885 371.02561859 16.58534241 371.02462769 C19.82524206 370.64236856 19.82524206 370.64236856 22.09158325 368.26617432 C24.00214727 364.8507962 24.19805822 362.75019775 24.19862366 358.8495636 C24.20800461 357.54471008 24.21738556 356.23985657 24.22705078 354.89546204 C24.21657215 353.4791142 24.20520309 352.0627727 24.19300842 350.6464386 C24.1931635 349.18582589 24.19465393 347.72521276 24.19741821 346.26460266 C24.19880052 343.20810179 24.18627313 340.15207113 24.16346741 337.09565735 C24.13508269 333.18487352 24.13782205 329.27487055 24.15055752 325.36402893 C24.15752451 322.34933342 24.14971389 319.33481726 24.13730049 316.32014465 C24.13279586 314.87850127 24.13244054 313.43683856 24.13636589 311.99519348 C24.13928777 309.97786779 24.12057645 307.9605461 24.10096741 305.9433136 C24.09286293 304.22386536 24.09286293 304.22386536 24.08459473 302.46968079 C23.65268221 299.04579615 22.74303899 297.15060027 20.69691467 294.3964386 C17.86742031 292.98169142 15.47120871 293.24564545 12.30702209 293.21943665 C11.65151871 293.21286545 10.99601532 293.20629425 10.32064819 293.19952393 C8.14789213 293.17978804 5.97520521 293.16812743 3.80238342 293.15815735 C3.06024408 293.15408182 2.31810474 293.15000629 1.55347633 293.14580727 C-2.37502642 293.12494469 -6.30349423 293.11064416 -10.23204041 293.10127258 C-14.28752655 293.09021115 -18.34246354 293.05581558 -22.39775562 293.01610088 C-25.51791394 292.98993984 -28.63794135 292.98158122 -31.75819969 292.9779911 C-33.25291844 292.97312329 -34.74763126 292.96150362 -36.24224281 292.94295311 C-38.33693909 292.91857197 -40.43021406 292.91952372 -42.52500916 292.9264679 C-43.71588638 292.92060165 -44.90676361 292.91473541 -46.13372803 292.90869141 C-50.05578123 293.51227449 -51.67536506 294.42705898 -54.30308533 297.3964386 Z M190.69691467 295.3964386 C189.25637011 298.27752773 189.54567909 300.78210548 189.51991272 304.00166321 C189.51334152 304.67988632 189.50677032 305.35810944 189.5 306.05688477 C189.48026736 308.30418504 189.46860628 310.55141858 189.45863342 312.79878235 C189.4545579 313.56548311 189.45048237 314.33218388 189.44628334 315.122118 C189.42542549 319.17799231 189.41112101 323.23383279 189.40174866 327.28974915 C189.39066803 331.48442744 189.35624898 335.67857759 189.31657696 339.87306881 C189.29047254 343.0943706 189.28206251 346.31554517 189.27846718 349.53694344 C189.27358731 351.08355348 189.2619336 352.63015732 189.24342918 354.17666435 C189.21916094 356.3388132 189.21997876 358.49957702 189.22694397 360.66181946 C189.22107773 361.89266769 189.21521149 363.12351593 189.20916748 364.3916626 C189.43511416 367.41874619 189.43511416 367.41874619 191.30599976 369.29309082 C194.47282657 370.75450265 196.93277184 370.77771094 200.42152405 370.78462219 C201.08867935 370.78987915 201.75583466 370.79513611 202.44320679 370.80055237 C204.64259947 370.81372721 206.84126497 370.80502386 209.04066467 370.7948761 C210.57236367 370.79689757 212.10406174 370.79980963 213.63575745 370.80357361 C216.84357378 370.80799353 220.05113925 370.80157681 223.25892639 370.78755188 C227.36821715 370.77045993 231.47692007 370.78030293 235.58618927 370.79826927 C238.74837157 370.80911623 241.9104148 370.80565664 245.07260132 370.79788589 C246.58764719 370.7958864 248.10270575 370.79833439 249.61773682 370.80532455 C251.73626596 370.81295435 253.85384669 370.80131493 255.9723053 370.78462219 C257.17713562 370.78223541 258.38196594 370.77984863 259.62330627 370.77738953 C263.0454061 370.35324567 264.46089518 370.02744591 266.69691467 367.3964386 C267.30030207 364.29337149 267.30030207 364.29337149 267.19862366 360.6776886 C267.20402664 359.99931946 267.20942963 359.32095032 267.21499634 358.62202454 C267.22750355 356.37971867 267.21098132 354.1386919 267.19300842 351.8964386 C267.19316337 350.3384952 267.19465158 348.78055142 267.19741821 347.22261047 C267.19880309 343.95746318 267.18623001 340.69275469 267.16346741 337.4276886 C267.13508205 333.24089939 267.13781869 329.05483939 267.15055752 324.86799622 C267.15751024 321.65093245 267.14973017 318.43403745 267.13730049 315.21699524 C267.13278199 313.67321927 267.13245267 312.12942521 267.13636589 310.58564758 C267.13927424 308.42844975 267.1227911 306.27225919 267.10096741 304.1151886 C267.09286293 302.27344055 267.09286293 302.27344055 267.08459473 300.39448547 C266.95049324 297.41427639 266.95049324 297.41427639 265.29666138 295.53901672 C261.92475947 293.13072212 259.49838679 293.26454006 255.38294983 293.25117493 C254.73559372 293.24781631 254.08823761 293.2444577 253.42126465 293.24099731 C251.27614942 293.23148018 249.13111221 293.22954374 246.98597717 293.22846985 C245.49626127 293.22525747 244.00654568 293.22189341 242.51683044 293.21838379 C239.39130421 293.21239039 236.26580563 293.21054407 233.14027405 293.21113586 C229.13643 293.21123743 225.13276354 293.19759251 221.12896156 293.18036366 C218.05087979 293.16924061 214.97284087 293.16721676 211.89474106 293.16774559 C210.41876489 293.16656565 208.94278761 293.16214309 207.46683121 293.15441322 C205.40098424 293.14460835 203.33552183 293.14749326 201.26966858 293.15351868 C200.09433563 293.15209366 198.91900269 293.15066864 197.70805359 293.14920044 C194.77911115 293.38968962 193.1171447 293.77022986 190.69691467 295.3964386 Z " fill="#000000" transform="translate(157.30308532714844,49.60356140136719)"/>
</svg>
