<?xml version="1.0" encoding="UTF-8"?>
<svg version="1.1" xmlns="http://www.w3.org/2000/svg" width="512" height="512">
<path d="M0 0 C5.15071753 3.68839809 9.73219734 8.01696388 14.375 12.3125 C15.70348096 13.48468908 17.03650798 14.65175541 18.375 15.8125 C23.96479989 20.68393203 29.45034898 25.6714515 34.953125 30.640625 C38.73974959 34.05555638 42.53083617 37.46236526 46.375 40.8125 C51.96479989 45.68393203 57.45034898 50.6714515 62.953125 55.640625 C66.7180085 59.03594938 70.48693551 62.42308342 74.3125 65.75 C78.50664365 69.40187053 82.60594292 73.15516184 86.71484375 76.90234375 C89.56527034 79.48488884 92.45325892 82.01905103 95.35546875 84.54296875 C100.27236556 88.85119748 105.10139032 93.25936156 109.953125 97.640625 C113.7180085 101.03594938 117.48693551 104.42308342 121.3125 107.75 C125.50664365 111.40187053 129.60594292 115.15516184 133.71484375 118.90234375 C136.56527034 121.48488884 139.45325892 124.01905103 142.35546875 126.54296875 C145.53159247 129.32591662 148.66335742 132.15754221 151.796875 134.98828125 C153.51045417 136.53309883 155.22919243 138.07221357 156.953125 139.60546875 C158.64227806 141.1106803 160.32340247 142.62495342 161.99609375 144.1484375 C163.49042481 145.50781255 165.00135909 146.84937922 166.53515625 148.1640625 C175.38396989 156.17743902 180.66687466 167.90280376 181.56089854 179.78275311 C181.63674072 182.49296097 181.65127556 185.19659532 181.64242554 187.90785217 C181.64695665 188.93895266 181.65148776 189.97005316 181.65615618 191.03239912 C181.66876065 194.46834165 181.66718238 197.90412488 181.66552734 201.34008789 C181.67151486 203.81116437 181.67832093 206.28223899 181.68588257 208.75331116 C181.70169235 214.75660772 181.70798968 220.75984225 181.70910732 226.76315386 C181.71005979 231.64369248 181.71417995 236.5242182 181.72050858 241.40475273 C181.73810314 255.25611779 181.74734968 269.10745196 181.74584763 282.95882828 C181.74576772 283.70436075 181.7456878 284.44989322 181.74560547 285.21801758 C181.74552371 285.9644645 181.74544195 286.71091143 181.74535771 287.47997796 C181.74454423 299.58585871 181.76370204 311.69161522 181.7918822 323.79746003 C181.82062022 336.241489 181.83442215 348.68545736 181.83269465 361.12952036 C181.8320313 368.11052515 181.83750005 375.0913995 181.85905075 382.07237434 C181.87918033 388.6346874 181.87857967 395.19677202 181.86401749 401.75911522 C181.86192459 404.16653979 181.86665877 406.57398148 181.8787384 408.98137665 C181.89416738 412.26928633 181.88489743 415.55624242 181.86947632 418.84413147 C181.87976344 419.79520863 181.89005057 420.74628579 181.90064943 421.72618347 C181.83866316 427.71207894 180.83498635 432.33780504 177.375 437.3125 C171.01475911 442.96455627 162.85315251 441.87619945 154.80444336 441.83007812 C153.21710062 441.83550302 151.62976291 441.84262774 150.04243469 441.85131836 C145.74493647 441.86950962 141.44782357 441.86250206 137.15031886 441.84980202 C132.64744854 441.8396543 128.14461055 441.84907245 123.64173889 441.85534668 C116.08198134 441.86261718 108.52238027 441.8530503 100.96264648 441.83398438 C92.22778383 441.81220887 83.49329455 441.81927426 74.75844091 441.84129 C67.25165392 441.85945164 59.74497922 441.86199883 52.23817736 441.85153532 C47.75777699 441.8453056 43.27755205 441.84445054 38.79716301 441.85768127 C34.58547322 441.86925061 30.37426421 441.86119455 26.16262627 441.83810425 C24.61870623 441.83282324 23.07474562 441.83432057 21.53084183 441.84315491 C19.41987488 441.85411886 17.31043956 441.8403398 15.1995697 441.82043457 C14.01954848 441.81892647 12.83952726 441.81741837 11.62374783 441.81586456 C6.56286624 441.031726 3.47966739 438.50673501 0.0625 434.8125 C-2.28953698 431.32800077 -2.74982211 428.40352186 -2.74957275 424.25424194 C-2.75213577 423.4554361 -2.75469879 422.65663025 -2.75733948 421.83361816 C-2.75523972 420.96603882 -2.75313995 420.09845947 -2.75097656 419.20458984 C-2.75377876 417.82329391 -2.75377876 417.82329391 -2.75663757 416.41409302 C-2.76063917 414.41487279 -2.76271619 412.41564799 -2.76309967 410.4164238 C-2.76652145 406.1577336 -2.78789482 401.89919522 -2.80833054 397.64055824 C-2.84630284 389.7146164 -2.87761932 381.7888362 -2.87548828 373.86279297 C-2.87469896 368.34662536 -2.89816079 362.8310134 -2.9373703 357.314991 C-2.94779957 355.21880215 -2.94937712 353.12254892 -2.94171906 351.02634811 C-2.40433819 335.77386305 -2.40433819 335.77386305 -8.625 322.3125 C-13.93565549 317.11028478 -19.37297474 314.37711191 -26.84765625 314.28515625 C-33.2297903 314.71209146 -38.91668053 316.44204167 -43.38671875 321.1796875 C-48.61854644 327.89365523 -49.92087132 333.20026868 -49.89624023 341.58154297 C-49.90146698 342.50737183 -49.90669373 343.43320068 -49.91207886 344.38708496 C-49.9223039 346.39337345 -49.92809665 348.39968836 -49.92996025 350.40600204 C-49.93362771 353.58411757 -49.95036514 356.76192213 -49.97071838 359.93997192 C-50.02609335 368.9744081 -50.05680617 378.00888994 -50.08129883 387.04345703 C-50.09719366 392.57360963 -50.12743283 398.10354126 -50.16606331 403.63357925 C-50.17769598 405.73783138 -50.18364351 407.84212305 -50.18374443 409.94640732 C-50.18393698 412.8927282 -50.2022398 415.83844166 -50.22436523 418.78466797 C-50.21978806 419.64931671 -50.21521088 420.51396545 -50.210495 421.40481567 C-50.28125254 427.34652868 -51.08203654 432.42659236 -55.16015625 437.0546875 C-59.92849604 440.59130781 -62.0439789 441.43828184 -67.96855164 441.45967102 C-68.62685701 441.46334771 -69.28516238 441.4670244 -69.9634164 441.4708125 C-72.17963891 441.48186664 -74.39581457 441.48569612 -76.61206055 441.48950195 C-78.19703827 441.49576539 -79.78201451 441.50241209 -81.36698914 441.50941467 C-85.68124759 441.52683761 -89.99549495 441.53738036 -94.30977988 441.5456202 C-97.00507853 441.55076857 -99.70037372 441.55684443 -102.39566994 441.56313133 C-110.82812552 441.58218867 -119.26057233 441.59641757 -127.69304532 441.6047433 C-137.42745519 441.61451292 -147.1616375 441.64082293 -156.89596719 441.68124419 C-164.41877424 441.71141009 -171.9415161 441.7262127 -179.46438247 441.72952431 C-183.95778446 441.73187464 -188.45094351 441.74083234 -192.94428062 441.76598549 C-197.17390518 441.78927901 -201.40312706 441.7934944 -205.63279915 441.78322411 C-207.18276687 441.78272891 -208.7327545 441.78904457 -210.28266144 441.80278015 C-225.44308097 441.92958435 -225.44308097 441.92958435 -230.625 437.3125 C-234.72626607 431.40888877 -235.19723004 425.88196383 -235.12620544 418.86431885 C-235.13173984 417.83689504 -235.13727424 416.80947124 -235.14297634 415.75091338 C-235.15654874 412.3209981 -235.14163134 408.89181479 -235.12670898 405.46191406 C-235.13049347 402.99747408 -235.13599458 400.53303622 -235.14308167 398.06860352 C-235.15559057 392.07643922 -235.14947555 386.08455989 -235.13440608 380.09242323 C-235.11750592 373.10489838 -235.12076151 366.11742558 -235.12450016 359.1298866 C-235.13037465 346.65393134 -235.11622576 334.17807708 -235.09155273 321.70214844 C-235.06765381 309.61617238 -235.06054098 297.53033138 -235.07104492 285.44433594 C-235.08247689 272.26703756 -235.08435451 259.08980161 -235.06994683 245.91250396 C-235.06842109 244.50479746 -235.06690074 243.09709097 -235.06538582 241.68938446 C-235.064628 240.99687712 -235.06387019 240.30436978 -235.06308941 239.59087737 C-235.05836255 234.72927914 -235.06018679 229.86770893 -235.06445122 225.00611115 C-235.06991792 218.44954937 -235.05904679 211.89314631 -235.03749657 205.33660889 C-235.03195142 202.93571347 -235.03144241 200.5348001 -235.03644943 198.1339035 C-235.07155074 178.88204831 -234.38967459 163.06641814 -220.24975586 148.55444336 C-215.16956933 143.49410373 -209.97792467 138.54084011 -204.50390625 133.90625 C-202.21096946 131.96130569 -199.98194159 129.95211189 -197.75 127.9375 C-196.90953125 127.17953125 -196.0690625 126.4215625 -195.203125 125.640625 C-194.35234375 124.87234375 -193.5015625 124.1040625 -192.625 123.3125 C-183.13627959 114.74389793 -183.13627959 114.74389793 -178.6875 110.875 C-175.45940488 108.06427475 -172.28761557 105.196701 -169.125 102.3125 C-165.33565874 98.85674587 -161.51416302 95.4472711 -157.64453125 92.08203125 C-153.59834911 88.53673046 -149.61756813 84.91791001 -145.625 81.3125 C-136.13627959 72.74389793 -136.13627959 72.74389793 -131.6875 68.875 C-127.49196779 65.22192044 -123.39126447 61.46744451 -119.28125 57.71875 C-116.45777331 55.16101229 -113.59443998 52.65480031 -110.71875 50.15625 C-108.16080973 47.90373543 -105.6432102 45.60932908 -103.125 43.3125 C-99.33565874 39.85674587 -95.51416302 36.4472711 -91.64453125 33.08203125 C-87.59834911 29.53673046 -83.61756813 25.91791001 -79.625 22.3125 C-77.08226346 20.01633185 -74.53820295 17.72178165 -71.98828125 15.43359375 C-70.52281608 14.11830849 -69.06112172 12.79879271 -67.60546875 11.47265625 C-48.51842113 -5.67070016 -23.69236382 -14.74100279 0 0 Z M-53.96289062 44.74316406 C-56.49066903 47.12985025 -59.10456572 49.40770084 -61.73828125 51.67578125 C-64.06158787 53.69123772 -66.34248465 55.75098462 -68.625 57.8125 C-71.58369751 60.48298344 -74.55426472 63.13548058 -77.5625 65.75 C-81.75803221 69.40307956 -85.85873553 73.15755549 -89.96875 76.90625 C-92.79222669 79.46398771 -95.65556002 81.97019969 -98.53125 84.46875 C-101.08919027 86.72126457 -103.6067898 89.01567092 -106.125 91.3125 C-109.91434126 94.76825413 -113.73583698 98.1777289 -117.60546875 101.54296875 C-121.65165089 105.08826954 -125.63243187 108.70708999 -129.625 112.3125 C-139.11372041 120.88110207 -139.11372041 120.88110207 -143.5625 124.75 C-146.79059512 127.56072525 -149.96238443 130.428299 -153.125 133.3125 C-156.91434126 136.76825413 -160.73583698 140.1777289 -164.60546875 143.54296875 C-168.65165089 147.08826954 -172.63243187 150.70708999 -176.625 154.3125 C-178.33283099 155.85472314 -180.04115804 157.39639713 -181.75 158.9375 C-182.57242188 159.68 -183.39484375 160.4225 -184.2421875 161.1875 C-186.42763736 163.13649135 -188.64585578 165.03891329 -190.875 166.9375 C-195.25526116 170.75801176 -199.75716733 174.70900198 -201.625 180.3125 C-201.71936862 183.33842437 -201.75524455 186.34104651 -201.74525452 189.36698914 C-201.74610894 190.3046859 -201.74696337 191.24238267 -201.74784368 192.20849448 C-201.74949636 195.36386901 -201.74398054 198.51919088 -201.73852539 201.67456055 C-201.73824345 203.93113199 -201.73840139 206.18770352 -201.7389679 208.4442749 C-201.73925559 214.58233924 -201.73336334 220.72038416 -201.72639394 226.85844398 C-201.72015578 233.26865017 -201.71955623 239.67885679 -201.71836853 246.08906555 C-201.71561047 256.85210572 -201.70935815 267.61513738 -201.70043945 278.37817383 C-201.6912622 289.46476201 -201.68419436 300.55134825 -201.67993164 311.63793945 C-201.67966364 312.32814365 -201.67939565 313.01834785 -201.67911953 313.72946733 C-201.67680672 319.73313292 -201.6746539 325.73679856 -201.67251682 331.74046421 C-201.66310505 357.5978162 -201.64318521 383.45514925 -201.625 409.3125 C-162.685 409.3125 -123.745 409.3125 -83.625 409.3125 C-83.41520574 383.52501377 -83.41520574 383.52501377 -83.23706055 357.73730469 C-83.18713379 352.71337891 -83.18713379 352.71337891 -83.1599884 350.35040283 C-83.14399591 348.72430694 -83.13360233 347.09814934 -83.12788391 345.47198486 C-83.05335094 326.73207254 -79.95788728 310.86564878 -66.453125 296.85546875 C-54.69985577 286.28726672 -40.3699456 281.14259052 -24.625 281.3125 C-9.32177883 282.48274633 5.2312142 288.00445116 15.82421875 299.45703125 C24.88015302 310.29221709 29.46919456 323.13653801 29.58032227 337.22387695 C29.59035499 338.01745448 29.60038771 338.81103201 29.61072445 339.62865734 C29.64199404 342.18600273 29.66683279 344.74336368 29.69140625 347.30078125 C29.70982035 348.88424166 29.7286576 350.4676972 29.7479248 352.05114746 C29.81624214 357.90904077 29.87637829 363.76702719 29.9375 369.625 C30.081875 382.721875 30.22625 395.81875 30.375 409.3125 C69.315 409.3125 108.255 409.3125 148.375 409.3125 C148.46237283 368.75782126 148.46237283 368.75782126 148.52148438 328.203125 C148.52737538 322.73632787 148.53341944 317.26953097 148.53979492 311.80273438 C148.54058617 311.11756076 148.54137741 310.43238714 148.54219264 309.72645068 C148.55524046 298.66493506 148.57889185 287.60346622 148.60645839 276.54197834 C148.63451329 265.18984553 148.65095188 253.83774738 148.65726548 242.4855777 C148.66118023 236.10925402 148.67039624 229.7330364 148.69219017 223.35674667 C148.71253182 217.35681709 148.71883844 211.35703743 148.71432304 205.35707664 C148.71514928 203.15361021 148.72112863 200.95013884 148.73261642 198.74670219 C148.74752397 195.74020088 148.74395971 192.73426691 148.73576355 189.72775269 C148.74450207 188.85420257 148.7532406 187.98065246 148.76224393 187.08063114 C148.71572184 180.7746873 147.40837731 176.64925865 143.17578125 171.78515625 C142.35464844 170.98980469 141.53351563 170.19445312 140.6875 169.375 C139.79675781 168.51132813 138.90601563 167.64765625 137.98828125 166.7578125 C135.18577438 164.13543686 132.34312738 161.58010119 129.4296875 159.08203125 C127.08933197 157.06647791 124.7936299 155.00605407 122.5 152.9375 C121.65953125 152.17953125 120.8190625 151.4215625 119.953125 150.640625 C118.234375 149.08854167 116.515625 147.53645833 114.796875 145.984375 C111.01025041 142.56944362 107.21916383 139.16263474 103.375 135.8125 C97.78520011 130.94106797 92.29965102 125.9535485 86.796875 120.984375 C83.0319915 117.58905062 79.26306449 114.20191658 75.4375 110.875 C71.24196779 107.22192044 67.14126447 103.46744451 63.03125 99.71875 C60.83147259 97.72601047 58.61544782 95.7591186 56.375 93.8125 C53.16600756 91.02435902 50.01583556 88.17721815 46.875 85.3125 C43.08565874 81.85674587 39.26416302 78.4472711 35.39453125 75.08203125 C30.47763444 70.77380252 25.64860968 66.36563844 20.796875 61.984375 C17.0319915 58.58905062 13.26306449 55.20191658 9.4375 51.875 C6.20940488 49.06427475 3.03761557 46.196701 -0.125 43.3125 C-1.05957031 42.46300781 -1.99414062 41.61351562 -2.95703125 40.73828125 C-4.58274095 39.26014695 -6.20583584 37.77912144 -7.82421875 36.29296875 C-16.07304887 28.69138621 -16.07304887 28.69138621 -26.5625 25.625 C-37.88177818 26.36246812 -46.23440253 37.37707609 -53.96289062 44.74316406 Z " fill="#000000" transform="translate(282.625,38.6875)"/>
</svg>
