<?xml version="1.0" encoding="UTF-8"?>
<svg version="1.1" xmlns="http://www.w3.org/2000/svg" width="512" height="512">
<path d="M0 0 C0.65097656 0.17160645 1.30195313 0.34321289 1.97265625 0.52001953 C21.89979509 5.89055623 39.99475851 15.02889007 55.8828125 28.2421875 C62.16203008 33.45556003 66.5582579 36.10137025 74.87890625 36.17578125 C76.2806986 36.19552056 77.68247302 36.21656676 79.08422852 36.23876953 C79.81602325 36.24990784 80.54781799 36.26104614 81.30178833 36.27252197 C112.08055458 36.81680826 136.99980945 44.54116799 159.59765625 66.52734375 C169.82095637 77.28788066 176.77419531 89.44198952 182.26953125 103.171875 C182.69621094 104.22890625 183.12289063 105.2859375 183.5625 106.375 C183.93503906 107.33148438 184.30757813 108.28796875 184.69140625 109.2734375 C186.79935609 113.66552403 189.12231519 117.07945829 193.75 118.875 C194.53375 119.19855469 195.3175 119.52210937 196.125 119.85546875 C197.07375 120.23316406 198.0225 120.61085938 199 121 C223.56430228 130.91419403 244.10473867 146.91299146 254.83251953 171.94238281 C256.81260924 176.88384563 258.46621709 181.90435157 260 187 C260.51433594 188.66675781 260.51433594 188.66675781 261.0390625 190.3671875 C265.75293547 209.0905147 265.0775535 231.65633396 259 250 C258.67854004 250.98178223 258.67854004 250.98178223 258.35058594 251.98339844 C249.85204156 277.03369301 232.42528911 296.22716819 209.22265625 308.46484375 C198.02807965 313.87309001 185.96530611 317.13475308 173.52587891 317.11352539 C172.80323853 317.11367142 172.08059814 317.11381744 171.33605957 317.1139679 C168.96619584 317.11327561 166.59641237 317.10551546 164.2265625 317.09765625 C162.57604007 317.09578964 160.92551708 317.09436688 159.2749939 317.09336853 C154.94478813 317.0895625 150.61461626 317.07974866 146.28442383 317.06866455 C141.86019346 317.05840917 137.43595759 317.05386209 133.01171875 317.04882812 C124.34113033 317.03812458 115.67056939 317.02107128 107 317 C102.12028548 340.02626091 102.12028548 340.02626091 109.215271 361.8673172 C122.4826353 380.02609733 140.70016943 395.3748213 157.57775879 410.08345032 C165.00082535 416.61710415 170.5979776 422.18602595 171.5625 432.4375 C171.26428167 437.93048922 169.22244691 442.58262661 166 447 C160.76615042 451.4497904 155.41575349 453.41195902 148.57415295 453.26210308 C140.86205191 452.47684848 135.21805974 447.9533131 129.9831543 442.59838867 C129.34452957 441.96531296 128.70590485 441.33223724 128.04792786 440.67997742 C125.96091936 438.60468468 123.89237925 436.51203172 121.82421875 434.41796875 C120.36780526 432.95984214 118.91049956 431.50260619 117.4523468 430.04621887 C114.40784305 427.0000665 111.37200859 423.94561494 108.3425293 420.88452148 C104.46812174 416.97040357 100.57626439 413.07421867 96.67821026 409.18366528 C93.67058303 406.17911394 90.67062176 403.16700432 87.67307472 400.15239906 C86.24092656 398.71324418 84.80684427 397.27601124 83.37076378 395.84078026 C81.36290986 393.83111955 79.36516588 391.81191774 77.36987305 389.78979492 C76.78124481 389.20409729 76.19261658 388.61839966 75.58615112 388.01495361 C69.42705198 381.72825109 66.39285229 376.38079176 66.45068359 367.45361328 C66.44046173 366.62824066 66.43023987 365.80286804 66.41970825 364.95248413 C66.39205438 362.24145988 66.39381881 359.53146048 66.3984375 356.8203125 C66.39065561 354.92373278 66.38198462 353.02715652 66.37246704 351.13058472 C66.3575722 347.16132291 66.35810301 343.19241696 66.36865234 339.22314453 C66.38023506 334.15336814 66.34638566 329.08505473 66.299963 324.0155201 C66.27040083 320.09992046 66.26875659 316.1846696 66.27498245 312.26897812 C66.27396028 310.40077697 66.26356472 308.5325552 66.24335861 306.66446304 C66.07717455 289.15173711 66.07717455 289.15173711 71.02944946 282.67575073 C76.8294998 277.74340395 81.23908052 276.40774609 88.66650391 276.48583984 C89.92418579 276.47515221 89.92418579 276.47515221 91.20727539 276.46424866 C93.96394755 276.44503966 96.71984601 276.45323739 99.4765625 276.4609375 C101.40840767 276.45101979 103.34024339 276.43907448 105.27206421 276.42520142 C110.35353614 276.39287448 115.43479281 276.38245271 120.51635742 276.37835693 C128.62672845 276.36959878 136.73692257 276.3337156 144.8471489 276.2861824 C147.66140298 276.27372591 150.47542767 276.27434481 153.28970337 276.27645874 C171.36452888 276.2357414 189.13591918 275.01995782 203 262 C203.76054687 261.29230469 204.52109375 260.58460938 205.3046875 259.85546875 C218.02305321 246.94440052 221.41879898 231.28460521 221.36572266 213.74707031 C221.08457693 197.60569477 215.54005447 183.93317778 204.3125 172.20703125 C197.25658046 165.47291885 189.37192448 162.48175608 180.38891602 159.03735352 C173.8869446 156.49357952 168.37103402 153.50964177 163 149 C162.01386719 148.21882812 161.02773438 147.43765625 160.01171875 146.6328125 C150.72785044 138.83348728 146.57661879 127.95964108 142.30981445 116.97070312 C139.43195479 109.69846924 136.25458726 103.87213669 131 98 C130.42636719 97.34257813 129.85273438 96.68515625 129.26171875 96.0078125 C117.84470004 83.77716717 102.41894786 78.70223606 86 78 C82.08249488 77.96540529 78.16723134 78.01332973 74.25 78.0625 C55.66861986 78.24885483 42.9950202 72.63151356 28.8984375 60.421875 C24.54200071 56.78172566 19.91433057 53.82608812 15 51 C14.08992188 50.47664063 13.17984375 49.95328125 12.2421875 49.4140625 C-10.58098811 37.16293009 -37.12342382 35.20814138 -61.86376953 42.32275391 C-87.45107649 50.43466128 -108.5690222 68.13839546 -120.99316406 91.89941406 C-124.73927008 99.45694282 -127.43298463 107.09741402 -129.5625 115.25 C-133.6343669 130.79458248 -141.24256157 143.83190943 -154.71484375 153.09765625 C-160.15797833 156.24962598 -165.90371802 158.6613962 -171.6796875 161.1328125 C-187.23078672 167.79563666 -196.67140496 176.35572071 -203.25 192.125 C-209.17214617 207.13816002 -209.64870042 226.88810265 -203.23388672 241.77832031 C-196.93640443 255.77034944 -187.43401588 266.66344032 -172.796875 272.21484375 C-161.12627194 276.02814545 -149.84997448 276.13970348 -137.69921875 276.11010742 C-136.05734253 276.10986494 -134.41546616 276.11014356 -132.77359009 276.11090088 C-129.25258922 276.11200239 -125.73160144 276.11058625 -122.21060181 276.10753441 C-116.63736278 276.10388603 -111.06419098 276.11307237 -105.4909668 276.12532043 C-104.07673604 276.12835333 -104.07673604 276.12835333 -102.63393497 276.13144749 C-100.70692436 276.13561555 -98.77991383 276.1398183 -96.85290337 276.14405501 C-83.88919982 276.17215182 -70.92564489 276.19230782 -57.96191406 276.17504883 C-49.20058966 276.16348049 -40.43956974 276.17310665 -31.6782999 276.20710641 C-27.04848347 276.22423019 -22.41921674 276.23059627 -17.78939819 276.210989 C-13.43551384 276.1927141 -9.08257638 276.20244462 -4.72877121 276.23324585 C-3.1361195 276.2395916 -1.54338834 276.23580686 0.04920578 276.22084999 C14.9610891 276.09125238 14.9610891 276.09125238 21.30568886 281.27356243 C27.53331072 287.61926841 27.58711144 293.53093432 27.54931641 302.21826172 C27.55953827 303.43377716 27.56976013 304.6492926 27.58029175 305.90164185 C27.60326089 309.22023862 27.60824238 312.53783335 27.60316515 315.85643911 C27.60101761 318.63457586 27.61081316 321.41262164 27.62037599 324.1907388 C27.64252711 330.74946222 27.64346375 337.30795653 27.63134766 343.86669922 C27.61927285 350.61470611 27.643885 357.36187846 27.68648779 364.109743 C27.72180989 369.91979692 27.73370845 375.7295863 27.72721231 381.53974354 C27.72360004 385.0026268 27.72872121 388.46491481 27.75664139 391.92770004 C27.78664466 395.79311143 27.7677812 399.65747408 27.74462891 403.52294922 C27.75991638 404.65778748 27.77520386 405.79262573 27.79095459 406.96185303 C27.69130093 414.50899047 26.04246748 419.31558245 21 425 C15.63269269 429.58457499 10.40863559 429.72630365 3.453125 429.51171875 C-1.72758431 428.7439892 -5.42488817 426.82192918 -9 423 C-12.99994863 417.2402318 -13.56463326 413.03901503 -13.45410156 406.11743164 C-13.45468567 405.15080597 -13.45526978 404.1841803 -13.45587158 403.18826294 C-13.45309788 400.01185462 -13.42203906 396.83639945 -13.390625 393.66015625 C-13.38316009 391.45056165 -13.37746834 389.24096041 -13.37347412 387.03135681 C-13.35823762 381.22962 -13.31897248 375.42828685 -13.2746582 369.62670898 C-13.23366292 363.70106466 -13.21545399 357.77535479 -13.1953125 351.84960938 C-13.15247655 340.23286747 -13.08214251 328.61653054 -13 317 C-26.2 317 -39.4 317 -53 317 C-52.89558594 323.23197266 -52.89558594 323.23197266 -52.7890625 329.58984375 C-52.75041796 332.92356033 -52.7179025 336.25721277 -52.6894989 339.59102631 C-52.65794413 343.09899075 -52.61585459 346.60607117 -52.54736328 350.11352539 C-52.4690947 354.14738016 -52.44047447 358.18031358 -52.4140625 362.21484375 C-52.38309479 363.45894516 -52.35212708 364.70304657 -52.32022095 365.98484802 C-52.31458695 380.66135578 -61.43576395 387.89662971 -71.21183205 397.68184853 C-71.89087278 398.36047132 -72.56991352 399.03909412 -73.26953125 399.73828125 C-74.67458072 401.15044318 -76.07933542 402.56289845 -77.48381042 403.97563171 C-80.41805803 406.9232713 -83.35811244 409.86496994 -86.30200195 412.80297852 C-90.06126819 416.55633892 -93.80192729 420.32766242 -97.53799915 424.1040926 C-100.42993696 427.02195135 -103.33334316 429.92818723 -106.24008751 432.83128929 C-107.62384187 434.21672922 -109.00364894 435.606124 -110.379282 436.99962807 C-112.30723795 438.94987085 -114.25061331 440.88339709 -116.19848633 442.8137207 C-116.75514984 443.38364746 -117.31181335 443.95357422 -117.88534546 444.54077148 C-123.07900841 449.62706815 -129.10439706 452.9626403 -136.4375 453.5625 C-141.93048922 453.26428167 -146.58262661 451.22244691 -151 448 C-155.44149956 442.77590212 -157.46280494 437.39496278 -157.23530579 430.55361938 C-156.29774877 420.37892796 -148.90379136 414.72502771 -141.68196106 408.43128395 C-107.36119198 381.09389665 -107.36119198 381.09389665 -89.59135437 343.46716309 C-89.32145473 334.41012816 -90.71558642 325.72481662 -93 317 C-93.88932724 317.00888245 -94.77865448 317.01776489 -95.69493103 317.0269165 C-104.15136467 317.10767578 -112.60766542 317.1682721 -121.06439877 317.20724869 C-125.41020847 317.22796183 -129.75569473 317.25597424 -134.10131836 317.30175781 C-138.30944982 317.34580609 -142.51727383 317.36925876 -146.72561836 317.37950897 C-148.31649161 317.38679624 -149.90735156 317.40101962 -151.49809074 317.42292023 C-176.9779713 317.75917639 -200.03818197 309.37237152 -219 292 C-238.12568039 273.36398311 -248.90650128 248.47362352 -249.29248047 221.76977539 C-249.44813783 191.00087121 -241.8989854 165.27479191 -220.47998047 142.48876953 C-209.41705008 131.36014045 -195.19307905 124.57605341 -180.55078125 119.3984375 C-172.83485501 115.1682666 -171.37161038 107.87506168 -168.97848511 99.92474365 C-161.81778351 76.34494254 -150.99491657 56.97928993 -134 39 C-133.25363281 38.18917969 -132.50726563 37.37835938 -131.73828125 36.54296875 C-114.2415932 18.17867634 -91.26016887 6.63674702 -67 0 C-66.32710937 -0.19062012 -65.65421875 -0.38124023 -64.9609375 -0.57763672 C-45.3908886 -5.8577245 -19.47953741 -5.22672933 0 0 Z " fill="#000000" transform="translate(249,3)"/>
<path d="M0 0 C4.68796317 2.8950501 8.77605467 6.42344712 10.234375 11.89453125 C11.16656452 18.74158704 11.3930195 24.99387098 7.671875 31.01953125 C3.66347868 35.99068326 0.31000422 38.47580101 -6.0078125 39.3359375 C-13.1275177 39.69575056 -18.34453314 39.19135672 -23.98828125 34.640625 C-29.08369757 29.63479842 -30.03494232 26.05750776 -30.390625 19.01953125 C-30.17838344 12.13997715 -28.58962241 7.80486419 -23.765625 2.89453125 C-17.29271618 -2.6344117 -7.84970384 -3.13766411 0 0 Z " fill="#000000" transform="translate(465.765625,473.10546875)"/>
<path d="M0 0 C4.68796317 2.8950501 8.77605467 6.42344712 10.234375 11.89453125 C11.16656452 18.74158704 11.3930195 24.99387098 7.671875 31.01953125 C3.66347868 35.99068326 0.31000422 38.47580101 -6.0078125 39.3359375 C-13.1275177 39.69575056 -18.34453314 39.19135672 -23.98828125 34.640625 C-29.08369757 29.63479842 -30.03494232 26.05750776 -30.390625 19.01953125 C-30.17838344 12.13997715 -28.58962241 7.80486419 -23.765625 2.89453125 C-17.29271618 -2.6344117 -7.84970384 -3.13766411 0 0 Z " fill="#000000" transform="translate(265.765625,473.10546875)"/>
<path d="M0 0 C4.68796317 2.8950501 8.77605467 6.42344712 10.234375 11.89453125 C11.16656452 18.74158704 11.3930195 24.99387098 7.671875 31.01953125 C3.66347868 35.99068326 0.31000422 38.47580101 -6.0078125 39.3359375 C-13.1275177 39.69575056 -18.34453314 39.19135672 -23.98828125 34.640625 C-29.08369757 29.63479842 -30.03494232 26.05750776 -30.390625 19.01953125 C-30.17838344 12.13997715 -28.58962241 7.80486419 -23.765625 2.89453125 C-17.29271618 -2.6344117 -7.84970384 -3.13766411 0 0 Z " fill="#000000" transform="translate(65.765625,473.10546875)"/>
</svg>
