<?xml version="1.0" encoding="UTF-8"?>
<svg version="1.1" xmlns="http://www.w3.org/2000/svg" width="512" height="512">
<path d="M0 0 C1.26542198 -0.00382555 2.53084397 -0.00765109 3.83461207 -0.01159257 C7.31725028 -0.02180701 10.79978479 -0.01970764 14.28243124 -0.01541197 C18.0501048 -0.01293273 21.81775416 -0.02197373 25.5854187 -0.02944946 C32.95538139 -0.04216553 40.32530759 -0.04399401 47.6952794 -0.0416492 C53.68937096 -0.03986234 59.68345149 -0.04162355 65.67754173 -0.04587364 C66.53237121 -0.04646883 67.38720068 -0.04706402 68.26793408 -0.04767724 C70.00482697 -0.04888906 71.74171986 -0.0501032 73.47861274 -0.05131962 C89.74877381 -0.06218333 106.01891412 -0.06003826 122.28907635 -0.05393478 C137.15195614 -0.04876717 152.01477036 -0.06001902 166.87763719 -0.07903299 C182.16260696 -0.09843608 197.44754575 -0.10666303 212.73252791 -0.10290974 C221.30433065 -0.10100138 229.8760776 -0.10344956 238.44787025 -0.11762428 C245.74556658 -0.12957061 253.04317278 -0.13090668 260.34087042 -0.11883412 C264.0591041 -0.11296805 267.77717319 -0.11178248 271.49539566 -0.12383652 C275.53848177 -0.13679063 279.58118048 -0.12617703 283.62426758 -0.11352539 C285.36113389 -0.12458682 285.36113389 -0.12458682 287.13308841 -0.13587171 C304.79356585 -0.02026997 319.71251115 4.84046945 332.3033905 17.33491516 C342.67638415 28.57857977 347.17770604 41.57549384 347.11613464 56.64082336 C347.11628067 57.57789627 347.1164267 58.51496918 347.11657715 59.48043823 C347.11588189 62.56997513 347.10810758 65.65945133 347.1002655 68.74897766 C347.09839995 70.89417488 347.09697669 73.03937252 347.09597778 75.18457031 C347.09216342 80.82504965 347.08234235 86.46550315 347.0712738 92.10597229 C347.06103645 97.86392365 347.05647518 103.62187919 347.05143738 109.37983704 C347.04071912 120.67346816 347.02365566 131.96708014 347.00260925 143.26069641 C347.77775879 143.25181396 348.55290833 143.24293152 349.35154724 143.23377991 C356.70584626 143.15317342 364.05992694 143.09250057 371.4145546 143.05344772 C375.19442552 143.0326943 378.97392727 143.00460553 382.75358582 142.9589386 C386.41057135 142.91503728 390.0672049 142.8914676 393.7244339 142.88118744 C395.11011536 142.87387449 396.49578057 142.85959736 397.88130951 142.83777618 C413.31509121 142.60467619 424.05916083 146.56517103 435.69010925 156.57319641 C446.36420611 168.9782279 449.62038453 180.29356383 449.52018738 196.5851593 C449.5256209 198.08631057 449.5327504 199.5874565 449.54142761 201.08859253 C449.55951646 205.12994938 449.55265433 209.17089348 449.53991127 213.21225667 C449.52970991 217.46184774 449.53919642 221.71140592 449.54545593 225.96099854 C449.55271093 233.09326963 449.54320048 240.22537445 449.52409363 247.35762024 C449.50232061 255.5795581 449.50938794 263.80109919 449.53139925 272.02302748 C449.54960476 279.1096166 449.55208675 286.19608692 449.54164457 293.2826919 C449.53543891 297.50328628 449.53449284 301.7236947 449.54779053 305.94427681 C449.55942415 309.91310841 449.55118794 313.88143285 449.5282135 317.85021019 C449.52296655 319.29850552 449.52437059 320.74684423 449.53326416 322.19512177 C449.6137937 336.65199684 445.77785349 349.25419907 435.75260925 360.01069641 C422.57726249 372.23672779 407.30734995 373.87217216 390.19010925 373.51069641 C388.51500066 373.49057888 386.83986844 373.4723375 385.16471863 373.45600891 C381.11008551 373.41247871 377.0566174 373.34375071 373.00260925 373.26069641 C373.01260201 374.07969421 373.01260201 374.07969421 373.02279663 374.91523743 C373.08944689 380.62587056 373.13453239 386.3363922 373.16740417 392.0473175 C373.18244001 394.17529289 373.20287408 396.30323755 373.22892761 398.43110657 C373.26554015 401.49938058 373.28238806 404.5672429 373.295578 407.63569641 C373.31106186 408.5787262 373.32654572 409.52175598 373.34249878 410.49336243 C373.34430336 417.66354331 372.36139121 423.31221897 367.75260925 429.07319641 C363.11041222 432.76585314 359.08143538 434.57031117 353.12760925 434.38569641 C347.0816669 433.4193136 343.29073246 430.52900506 339.00260925 426.26069641 C337.02557537 423.44472703 335.32032133 420.54704689 333.60371399 417.56567383 C322.80802935 399.3099915 307.7509361 381.04995634 287.00260925 374.26069641 C249.60276995 365.76153403 207.19619919 370.21245651 169.22547913 372.4256897 C167.87115567 372.50051989 166.51681572 372.57505219 165.16245842 372.6492672 C162.68693053 372.78935812 160.21218918 372.94467536 157.73886299 373.11937904 C143.67048396 373.9140064 132.73065029 370.13006622 122.19010925 360.76069641 C121.46823425 359.93569641 120.74635925 359.11069641 120.00260925 358.26069641 C119.5127655 357.7386261 119.02292175 357.21655579 118.51823425 356.67866516 C107.34127646 344.42274362 106.57401046 328.71033393 106.31510925 312.88569641 C106.28181849 311.45598012 106.24731875 310.02629145 106.21159363 308.59663391 C106.12806704 305.15152554 106.06064587 301.70633995 106.00260925 298.26069641 C105.11724236 299.15605606 105.11724236 299.15605606 104.21398926 300.06950378 C98.64567298 305.6979723 93.07013572 311.31916545 87.48640156 316.93234062 C84.61611437 319.81827263 81.74868008 322.70692382 78.88761902 325.602005 C76.12558202 328.39667729 73.35624576 331.18392183 70.5817318 333.9662056 C69.52537378 335.0280996 68.47165644 336.09262739 67.42066383 337.159832 C65.94621149 338.65611375 64.46258121 340.14268903 62.97648621 341.62739563 C62.13487442 342.47566925 61.29326263 343.32394287 60.42614746 344.19792175 C55.52743368 348.36742179 50.88379034 348.7026053 44.65885925 348.57710266 C39.705739 347.98709863 37.1056719 345.39439968 33.75260925 341.94819641 C29.10134322 334.80518072 29.73827956 327.13049155 29.80729675 318.88960266 C29.81012665 317.61213669 29.81295654 316.33467072 29.81587219 315.01849365 C29.82513918 311.64336063 29.84306859 308.26850437 29.86528015 304.89344788 C29.88584063 301.44101842 29.89489559 297.98856023 29.904953 294.53608704 C29.92696011 287.77754778 29.96039801 281.01913806 30.00260925 274.26069641 C29.42204269 274.27179947 28.84147614 274.28290253 28.24331665 274.29434204 C22.12621158 274.40613083 16.00940278 274.48085139 9.89152527 274.53535461 C7.61731657 274.56028935 5.34318624 274.59424983 3.06925964 274.63789368 C-15.70889882 274.98892589 -30.16915915 274.00217356 -44.99739075 261.26069641 C-45.6522345 260.70511047 -46.30707825 260.14952454 -46.98176575 259.57710266 C-57.04392351 250.29409429 -62.88167827 237.64403745 -63.45591068 224.00254059 C-63.54408407 220.00381335 -63.53537615 216.00816121 -63.51496887 212.00874329 C-63.52040054 210.20527586 -63.52752902 208.40181287 -63.53620911 206.59835815 C-63.55432124 201.73672754 -63.54742536 196.87543948 -63.53469276 192.01380348 C-63.52450191 186.90431989 -63.53397523 181.79486388 -63.54023743 176.68537903 C-63.54749621 168.10805546 -63.5379727 159.53087006 -63.51887512 150.9535675 C-63.49710984 141.06448209 -63.50416246 131.17572666 -63.52618074 121.28664923 C-63.5443853 112.76648067 -63.54686842 104.24641093 -63.53642607 95.72622919 C-63.53021886 90.65045934 -63.52927864 85.57484413 -63.54257202 80.49908447 C-63.55420378 75.72508382 -63.5459722 70.95150489 -63.522995 66.17754936 C-63.51774678 64.43499384 -63.51915423 62.69240227 -63.52804565 60.94986153 C-63.60519728 44.28139853 -60.36065735 29.70459262 -48.8059845 16.97944641 C-34.7578111 3.62913044 -18.82528204 -0.06109106 0 0 Z M-21.93489075 40.69819641 C-22.61551575 41.54382141 -23.29614075 42.38944641 -23.99739075 43.26069641 C-24.86364075 44.31257141 -24.86364075 44.31257141 -25.74739075 45.38569641 C-28.3138474 49.23538138 -28.13165194 52.7094094 -28.15129089 57.21130371 C-28.15567315 57.92284412 -28.1600554 58.63438453 -28.16457045 59.36748677 C-28.17795247 61.75791805 -28.18413598 64.14831247 -28.19026184 66.53877258 C-28.19816332 68.25035265 -28.2064323 69.96193104 -28.21504211 71.67350769 C-28.2412584 77.30021067 -28.25657005 82.92692108 -28.27082825 88.55366516 C-28.27618822 90.49100054 -28.28156573 92.42833587 -28.2869606 94.36567116 C-28.30858936 102.42513859 -28.32732562 110.48460402 -28.33858299 118.54409313 C-28.35481914 130.09191457 -28.38798889 141.63939938 -28.44498384 153.18709391 C-28.48369695 161.30780675 -28.50321735 169.42842961 -28.50850356 177.5492323 C-28.51215532 182.39872963 -28.52415796 187.24786788 -28.55660629 192.09726524 C-28.58671077 196.66183025 -28.59299032 201.22581935 -28.58122253 205.79046249 C-28.58100199 207.4625736 -28.58929097 209.13471162 -28.60687637 210.80673027 C-28.91184096 222.9815392 -28.91184096 222.9815392 -22.99739075 233.26069641 C-17.99199918 238.0158184 -13.50633837 239.50546565 -6.66584778 239.53193665 C-5.40749115 239.54212326 -4.14913452 239.55230988 -2.85264587 239.56280518 C-2.18522495 239.56374617 -1.51780403 239.56468716 -0.83015823 239.56565666 C1.27266114 239.56933896 3.37501666 239.58611604 5.47773743 239.60641479 C11.45355069 239.66164588 17.42943143 239.69246371 23.40544128 239.71699524 C27.06829921 239.73293322 30.73082671 239.76321569 34.39351273 239.80175972 C35.78323465 239.81335379 37.17301582 239.81933958 38.5627861 239.81944084 C46.97478579 239.82027601 53.28551886 239.8539089 60.25260925 244.88569641 C66.15209053 252.89213528 65.5398037 262.84962102 65.69010925 272.32319641 C65.72334547 273.77569996 65.75784076 275.22817527 65.79362488 276.68061829 C65.87780104 280.2071038 65.94494576 283.73366603 66.00260925 287.26069641 C71.51215675 282.67788259 76.57683145 277.78971029 81.60417175 272.68647766 C83.24466298 271.03335011 84.88529206 269.38035935 86.52604675 267.72749329 C89.08658316 265.14208057 91.64548435 262.55508906 94.201828 259.9655304 C96.68571621 257.45144944 99.1757786 254.9436157 101.66667175 252.43647766 C102.80901779 251.27394218 102.80901779 251.27394218 103.97444153 250.08792114 C105.05113602 249.00615852 105.05113602 249.00615852 106.14958191 247.90254211 C106.77466644 247.27000015 107.39975098 246.63745819 108.04377747 245.98574829 C113.85226474 240.8704842 118.63264175 240.1367091 126.18736267 240.12939453 C127.27433091 240.12622096 127.27433091 240.12622096 128.3832581 240.12298328 C130.8120544 240.11699065 133.24079864 240.11798291 135.66960144 240.11885071 C137.41088448 240.1158187 139.15216673 240.11229713 140.89344788 240.10832214 C144.64426003 240.10043559 148.39506268 240.09528913 152.14588165 240.09203148 C158.07970079 240.08611863 164.01346004 240.06957536 169.94725037 240.0506897 C171.97928997 240.04435235 174.01132962 240.03802672 176.04336929 240.03171253 C177.06101569 240.02854672 178.07866208 240.02538091 179.12714624 240.02211916 C192.94109204 239.98005494 206.75500992 239.94706977 220.5690155 239.93476868 C229.88765673 239.92638537 239.2061496 239.90388475 248.52471662 239.86541301 C253.45458948 239.8456618 258.38424062 239.83324471 263.31415558 239.8382473 C267.95342677 239.84289765 272.59227786 239.82906714 277.23146439 239.8012352 C278.93095394 239.79433002 280.63048699 239.79418962 282.32997513 239.80143547 C295.78767201 240.0344439 295.78767201 240.0344439 307.061203 233.26069641 C307.51624207 232.60069641 307.97128113 231.94069641 308.44010925 231.26069641 C309.14973816 230.27069641 309.14973816 230.27069641 309.873703 229.26069641 C312.23903628 225.07020977 312.13359497 221.05427534 312.14978027 216.3037262 C312.15529531 215.25350993 312.15529531 215.25350993 312.16092175 214.18207717 C312.17193401 211.83620581 312.17579823 209.49037878 312.17961121 207.14448547 C312.18587768 205.46231445 312.19252464 203.78014481 312.19952393 202.09797668 C312.22054355 196.57410136 312.23092384 191.05022582 312.2408905 185.52632141 C312.24493874 183.62334427 312.24905568 181.72036728 312.25324059 179.81739044 C312.27228705 170.87716637 312.28651965 161.93695052 312.29485255 152.99671006 C312.30462559 142.68220091 312.33094914 132.36790631 312.37135345 122.05347276 C312.40152516 114.07711044 312.4163224 106.10080959 312.41963357 98.12439132 C312.42198269 93.36215551 312.43092541 88.60014907 312.45609474 83.83797455 C312.47939918 79.35634887 312.4835992 74.87510322 312.47333336 70.39343262 C312.47283848 68.75196823 312.47914488 67.11048498 312.4928894 65.46907806 C312.5669461 56.0979761 312.49046677 48.9169256 306.3971405 41.23725891 C305.87507019 40.79124329 305.35299988 40.34522766 304.81510925 39.88569641 C304.30592957 39.42421204 303.79674988 38.96272766 303.2721405 38.48725891 C296.04699397 34.5824465 287.54253259 34.97349467 279.56048584 35 C278.33070241 34.99617445 277.10091899 34.99234891 275.8338694 34.98840743 C272.44156113 34.97990771 269.04947095 34.98029821 265.65716922 34.98458803 C261.99042376 34.98706303 258.32370335 34.97803155 254.65696716 34.97055054 C247.48191699 34.95782342 240.30690427 34.95600733 233.13184471 34.9583508 C227.29833065 34.96013619 221.46482793 34.9583796 215.63131523 34.95412636 C214.80003814 34.95353117 213.96876104 34.95293598 213.11229373 34.95232276 C211.42338785 34.95111097 209.73448197 34.94989683 208.04557609 34.94868038 C192.21953227 34.9378127 176.39350978 34.9399638 160.56746476 34.94606522 C146.09944624 34.95123486 131.63149503 34.93997635 117.16348983 34.92096701 C102.29444707 34.90158103 87.42543616 34.89333386 72.55638069 34.89709026 C64.21382966 34.899001 55.87133594 34.89652702 47.52879524 34.88237572 C40.42746543 34.87045134 33.32622821 34.86906894 26.22489709 34.88116588 C22.6043841 34.88704689 18.98404038 34.88817566 15.36353874 34.87616348 C11.4328478 34.86327405 7.50241218 34.87378751 3.57171631 34.88647461 C2.43580836 34.87910032 1.29990042 34.87172604 0.12957102 34.86412829 C-7.84426632 34.91819344 -15.61038431 35.45020171 -21.93489075 40.69819641 Z M347.00260925 178.26069641 C346.99674301 178.86267349 346.99087677 179.46465057 346.98483276 180.08486938 C346.92049438 186.39646131 346.83597443 192.70756224 346.74015808 199.01875305 C346.70707043 201.36862176 346.67898915 203.71856685 346.65617371 206.06855774 C346.6223293 209.4623597 346.56999918 212.8554717 346.514328 216.24897766 C346.50793808 217.28589249 346.50154816 218.32280731 346.4949646 219.3911438 C346.20757174 233.9132196 341.32151223 247.6222431 331.19010925 258.23335266 C321.14159713 267.54617015 309.10463209 273.34327354 295.32711792 273.41891479 C294.66947742 273.42385277 294.01183692 273.42879075 293.33426791 273.43387836 C291.13867515 273.44919182 288.94311149 273.4575972 286.7474823 273.46601868 C285.17040757 273.47560204 283.59333539 273.4856124 282.01626587 273.49601746 C277.73985513 273.52302288 273.46343341 273.54405604 269.18698478 273.56401944 C264.7159855 273.58590593 260.24501992 273.61328158 255.77404785 273.64007568 C247.30981663 273.68996657 238.84556667 273.73491877 230.38129884 273.77809805 C220.74410096 273.82750123 211.1069369 273.88240793 201.46977174 273.93777764 C181.64741576 274.05154236 161.82502748 274.15839339 142.00260925 274.26069641 C141.92645434 281.69878063 141.87396512 289.13676404 141.83781433 296.57514954 C141.82274139 299.10481015 141.80227965 301.6344447 141.77629089 304.16401672 C141.73984309 307.80307964 141.72286756 311.44179657 141.7096405 315.08100891 C141.69415665 316.2093515 141.67867279 317.33769409 141.66271973 318.50022888 C141.6615135 324.14637305 141.68540085 328.44544162 145.00260925 333.26069641 C149.4499869 337.27418355 151.86150948 338.38463852 157.78343201 338.39872742 C159.62987053 338.40690742 159.62987053 338.40690742 161.51361084 338.41525269 C162.88526911 338.41637253 164.25692744 338.41742305 165.62858582 338.41841125 C167.06740474 338.4230785 168.50622219 338.42822192 169.94503784 338.43380737 C173.04818331 338.44509788 176.15131911 338.45352752 179.25447845 338.45992661 C184.16264432 338.47059757 189.07074103 338.49084067 193.97886658 338.51304626 C207.93743212 338.57499871 221.89599407 338.62896709 235.85466003 338.6620636 C243.56036493 338.68041449 251.26595446 338.7093576 258.97157454 338.75006831 C263.04959866 338.77113305 267.12747739 338.78659479 271.20555878 338.78887558 C275.04368332 338.79102461 278.88150536 338.80691973 282.71953773 338.8332653 C284.1263773 338.84045049 285.53325354 338.84256304 286.94010735 338.83916283 C288.86471009 338.83525515 290.78932195 338.85151238 292.71385193 338.86869812 C294.32770216 338.87366334 294.32770216 338.87366334 295.97415543 338.87872887 C308.41047713 340.44727557 318.16904277 354.30948696 326.56510925 362.82319641 C328.52188902 364.80651735 330.48195782 366.78650468 332.4440155 368.76460266 C333.29681091 369.62899963 334.14960632 370.49339661 335.02824402 371.38398743 C336.66941069 373.37552214 336.66941069 373.37552214 338.00260925 373.26069641 C338.01662781 372.27057556 338.01662781 372.27057556 338.03092957 371.26045227 C338.08496498 368.23897177 338.16854618 365.21898465 338.25260925 362.19819641 C338.26678894 361.15985657 338.28096863 360.12151672 338.295578 359.05171204 C338.49882924 352.64929817 338.88947569 348.29732016 343.00260925 343.26069641 C349.28055722 338.60669227 355.81594604 338.72967217 363.3502655 338.82710266 C365.75326095 338.81750048 368.15625574 338.80772976 370.55924988 338.79780579 C374.32047427 338.80641383 378.08152851 338.82329298 381.84269714 338.84541321 C385.49139183 338.85994225 389.13910561 338.84467865 392.7877655 338.82710266 C393.90772415 338.84358353 395.0276828 338.86006439 396.18157959 338.87704468 C403.13575465 338.83265795 406.89175081 338.10905705 412.00260925 333.26069641 C414.12067477 329.97061423 414.25750304 327.30151207 414.27003479 323.42918396 C414.27856476 322.23754639 414.28709473 321.04590881 414.29588318 319.81816101 C414.29497681 318.51416351 414.29407043 317.21016602 414.2931366 315.86665344 C414.29912224 314.47679788 414.30592788 313.08694565 414.31349182 311.69709778 C414.33115543 307.92430704 414.33584735 304.15160703 414.33712339 300.37877893 C414.33854535 298.02083423 414.34281578 295.66291258 414.34811783 293.3049736 C414.3666193 285.07649522 414.3747883 276.84808162 414.37321472 268.61958313 C414.37201328 260.95327098 414.39311561 253.28724036 414.42470205 245.62099946 C414.45086635 239.03572807 414.46158196 232.45054863 414.4603039 225.86522567 C414.45979431 221.93359535 414.46547572 218.00221523 414.48666 214.07063675 C414.50604522 210.37199201 414.50616538 206.67383607 414.49162674 202.97517395 C414.48854362 200.97485484 414.50521311 198.97453567 414.52250671 196.97428894 C414.52750552 188.28378319 414.52750552 188.28378319 410.00260925 181.26069641 C406.82146501 178.12922371 404.53251658 177.89191495 400.13249207 177.92012024 C398.3611087 177.92046013 398.3611087 177.92046013 396.55393982 177.92080688 C395.28403198 177.93629074 394.01412415 177.9517746 392.70573425 177.96772766 C390.74987396 177.97409492 390.74987396 177.97409492 388.75450134 177.98059082 C385.29542153 177.99202092 381.83672227 178.02147164 378.37779236 178.05470276 C374.8452316 178.08544362 371.31260909 178.09910469 367.779953 178.11421204 C360.85401586 178.14634359 353.92833085 178.19751737 347.00260925 178.26069641 Z " fill="#000000" transform="translate(62.99739074707031,38.73930358886719)"/>
</svg>
