<?xml version="1.0" encoding="UTF-8"?>
<svg version="1.1" xmlns="http://www.w3.org/2000/svg" width="512" height="512">
<path d="M0 0 C1.08491643 -0.00507454 2.16983286 -0.01014909 3.28762555 -0.0153774 C4.47903614 -0.01587516 5.67044672 -0.01637292 6.89796066 -0.01688576 C8.16415765 -0.02126801 9.43035463 -0.02565027 10.73492122 -0.03016531 C14.25228413 -0.04211961 17.76963334 -0.04777666 21.28701258 -0.05234647 C25.08006723 -0.05830724 28.87310553 -0.06991623 32.66614914 -0.08063698 C41.83037429 -0.10515526 50.99460484 -0.11978996 60.1588527 -0.13269705 C62.74903563 -0.13641025 65.33921804 -0.1403834 67.92940044 -0.14444971 C84.02581434 -0.1696942 100.12222912 -0.19174004 116.21865845 -0.20417786 C119.94694395 -0.20710741 123.67522943 -0.21006909 127.40351486 -0.21308327 C128.3301277 -0.21382932 129.25674053 -0.21457537 130.21143255 -0.21534403 C145.20276878 -0.22798205 160.19398598 -0.26118393 175.18526664 -0.3028851 C190.58980036 -0.34538294 205.9942733 -0.36888218 221.39886546 -0.37409842 C230.04243628 -0.37750431 238.68582132 -0.38916154 247.32933426 -0.42220116 C254.69524353 -0.45031132 262.06092894 -0.46115337 269.42688766 -0.4500057 C273.17987043 -0.44484631 276.93238525 -0.44752605 280.68529892 -0.47247124 C304.93102051 -0.62478952 323.0050625 1.50739731 341.39863205 18.76592064 C352.96935591 30.79234081 358.99640269 45.98831227 358.95403671 62.52031517 C358.95927339 63.54083316 358.96451007 64.56135115 358.96990544 65.61279392 C358.98486108 69.019345 358.98560963 72.42574528 358.98627853 75.83232689 C358.99390315 78.28042414 359.00233117 80.728519 359.01150131 83.17661095 C359.03342718 89.81957263 359.04226541 96.462474 359.04732776 103.10546303 C359.05059299 107.26054671 359.05712052 111.41562121 359.06432915 115.57069969 C359.08388877 127.09515648 359.10029605 138.61960476 359.10320568 150.14407921 C359.10339325 150.88064367 359.10358082 151.61720813 359.10377407 152.37609273 C359.1041403 153.86903222 359.104504 155.36197172 359.10486519 156.85491121 C359.105048 157.5959203 359.10523081 158.33692939 359.10541916 159.1003933 C359.10568998 160.21327829 359.10568998 160.21327829 359.10596628 161.34864581 C359.10950372 173.35544828 359.13650194 185.36207095 359.17391705 197.36881113 C359.21210212 209.72244679 359.23136391 222.07599348 359.23166519 234.42968941 C359.23224756 241.35510925 359.24059605 248.28031468 359.26966286 255.20567894 C359.2969061 261.72616856 359.29799524 268.24634681 359.28200722 274.76687622 C359.28020013 277.1499817 359.28681589 279.53311201 359.30282593 281.9161644 C359.44155052 303.92003202 355.87476354 321.40308852 340.42988205 338.01201439 C326.80309527 350.69577095 310.00845049 356.34494809 291.61152267 356.25053978 C290.4686026 356.25075882 290.4686026 356.25075882 289.30259323 356.25098228 C286.81374267 356.2502922 284.32496935 356.24254268 281.83613205 356.23467064 C280.09878709 356.23280324 278.3614416 356.23138086 276.62409592 356.23038292 C272.07362514 356.22658309 267.52318679 356.21677469 262.97272873 356.20567894 C258.32043013 356.19541009 253.66812624 356.19087361 249.01581955 356.18584251 C239.90382622 356.17514993 230.79185684 356.15810427 221.67988205 356.13701439 C221.375905 356.76161049 221.07192795 357.38620659 220.75873947 358.02972984 C219.68181646 360.13323599 218.49897055 361.7562525 216.99238205 363.57060814 C216.46354416 364.2129641 215.93470627 364.85532005 215.38984299 365.51714134 C214.82555588 366.19607445 214.26126877 366.87500755 213.67988205 367.57451439 C209.51343366 372.63961981 205.40074921 377.72945708 201.42988205 382.94951439 C178.81425801 412.52943109 178.81425801 412.52943109 160.67988205 416.13701439 C145.95017214 417.62060476 133.05870322 416.15838172 120.9728508 407.03154564 C113.19612347 400.6061406 107.22459553 392.95303944 101.11201096 384.99687767 C98.77843657 381.96633391 96.41711945 378.95773446 94.05488205 375.94951439 C93.60419357 375.37346458 93.1535051 374.79741478 92.68915939 374.20390892 C88.97467795 369.47039855 85.14472118 364.84319872 81.2619133 360.24638939 C79.67988205 358.13701439 79.67988205 358.13701439 79.67988205 356.13701439 C78.72933945 356.14145561 77.77879684 356.14589684 76.79944992 356.15047264 C67.79692306 356.19119522 58.79441513 356.22108295 49.79181671 356.24063873 C45.16462204 356.25103085 40.53750234 356.26510551 35.9103508 356.2878933 C31.43642831 356.30978602 26.96257747 356.32161731 22.4886055 356.32676888 C20.79036712 356.33043537 19.0921322 356.33759419 17.39392471 356.3484745 C-4.22266073 356.48133466 -23.18005535 352.86888348 -39.50761795 337.51201439 C-51.55588575 324.88910743 -57.47061825 310.3074257 -57.46728897 293.09428978 C-57.47096566 292.07421837 -57.47464235 291.05414696 -57.47843045 290.00316429 C-57.48945553 286.58032798 -57.49330917 283.15752204 -57.4971199 279.73467064 C-57.5033855 277.28214993 -57.51003239 274.82963016 -57.51703262 272.37711143 C-57.53624987 265.01384866 -57.54685993 257.65059394 -57.55576041 250.28731346 C-57.56014878 246.81525649 -57.56551421 243.34320103 -57.57074928 239.87114525 C-57.58775943 228.32106913 -57.60225164 216.77099393 -57.60949802 205.22090721 C-57.61140775 202.22565777 -57.61332811 199.23040833 -57.61528397 196.23515892 C-57.61576771 195.49075216 -57.61625145 194.74634539 -57.61674985 193.97938085 C-57.62504285 181.93159485 -57.65036834 169.88390837 -57.68286464 157.83616579 C-57.71599418 145.45213684 -57.73395215 133.06815836 -57.73714226 120.68408489 C-57.73930205 113.7369456 -57.74797222 106.7899514 -57.77360344 99.84285545 C-57.79767804 93.30275296 -57.80109925 86.76286369 -57.79084206 80.22270966 C-57.79034765 77.82867185 -57.79663968 75.43462103 -57.8103981 73.04062271 C-57.93642046 49.80306799 -57.93642046 49.80306799 -53.32011795 39.13701439 C-52.93174916 38.22153831 -52.54338037 37.30606224 -52.14324284 36.36284447 C-45.37064357 21.13207521 -32.54392396 10.11237366 -17.3162117 3.91435814 C-11.44099836 1.731689 -6.3004552 0.01566155 0 0 Z M-17.69511795 43.38701439 C-24.62157074 52.25601342 -25.47347116 62.67440776 -25.45383072 73.52257347 C-25.45609628 74.44775961 -25.45836183 75.37294574 -25.46069604 76.32616782 C-25.46700893 79.41579877 -25.46620842 82.50538554 -25.46538162 85.5950222 C-25.46837482 87.81463235 -25.47177772 90.03424199 -25.47555923 92.25385094 C-25.48438746 98.27671298 -25.48673687 104.29956081 -25.48737502 110.3224287 C-25.48808623 114.0876696 -25.49022192 117.85290689 -25.49287224 121.6181469 C-25.50164485 134.08268791 -25.50629244 146.54722202 -25.50554176 159.01176575 C-25.50550181 159.68296596 -25.50546185 160.35416618 -25.50542068 161.0457058 C-25.5053798 161.71773142 -25.50533892 162.38975705 -25.5052968 163.08214709 C-25.50489057 173.96714954 -25.51445573 184.85211737 -25.52855905 195.73710981 C-25.54294635 206.9301581 -25.54964508 218.12319373 -25.54896528 229.31625247 C-25.54871064 235.59367279 -25.55154259 241.87105392 -25.56214333 248.14846611 C-25.57184541 254.05492062 -25.57188898 259.96129864 -25.56462669 265.86775589 C-25.56358346 268.03041954 -25.5659282 270.193088 -25.57198715 272.35574341 C-26.04672915 294.75656895 -26.04672915 294.75656895 -15.68730545 313.95342064 C-7.66430815 321.3980158 1.57924849 323.28594301 12.21455002 323.27886009 C13.48625046 323.28407173 13.48625046 323.28407173 14.78364182 323.28938866 C16.61969349 323.29672423 18.45575391 323.30208129 20.29181671 323.30567932 C23.20103961 323.31286722 26.11009605 323.32855053 29.01926804 323.3470211 C37.28909168 323.39938614 45.55882188 323.44746854 53.82880783 323.46294212 C58.89220769 323.47303589 63.95518472 323.50239211 69.01841736 323.54426193 C70.94403126 323.55655292 72.86970491 323.56169667 74.79535675 323.5594635 C77.4928372 323.55710458 80.18910833 323.57932014 82.88642502 323.60698509 C83.67626785 323.60038368 84.46611069 323.59378227 85.27988815 323.58698082 C91.55050856 323.69222509 95.830823 325.46515853 100.49335861 329.83769798 C100.9313176 330.39795677 101.36927658 330.95821556 101.82050705 331.53545189 C102.32775314 332.17224876 102.83499924 332.80904564 103.35761642 333.46513939 C103.87646408 334.14060814 104.39531174 334.81607689 104.92988205 335.51201439 C105.48997971 336.22099876 106.05007736 336.92998314 106.62714767 337.66045189 C108.32251512 339.81086133 110.00212658 341.97285082 111.67988205 344.13701439 C112.62151137 345.33838173 113.56415337 346.53895632 114.50800705 347.73857689 C115.84181558 349.43432585 117.17486671 351.13060071 118.50385666 352.83012962 C122.11986462 357.44981791 125.79472418 362.01997918 129.49238205 366.57451439 C130.01960861 367.22484642 130.54683517 367.87517845 131.0900383 368.54521751 C133.67632564 371.72256294 136.28217904 374.88356817 138.9181633 378.01982689 C139.62839645 378.86698265 139.62839645 378.86698265 140.35297775 379.73125267 C143.40104708 382.96046761 146.32488269 383.10883984 150.61738205 383.44951439 C155.56118047 383.26469949 158.83034543 381.93323843 162.4416008 378.42607689 C167.52289468 372.88097322 172.07528395 366.87727206 176.6916008 360.94560814 C180.33236206 356.28190299 184.07559387 351.70282398 187.82734299 347.12822533 C190.52235156 343.83218324 193.17275702 340.51546162 195.7384758 337.11748314 C196.22445236 336.47875267 196.71042892 335.8400222 197.21113205 335.18193626 C198.11829107 333.9837304 199.01618837 332.77842853 199.9025383 331.56474876 C203.05617748 327.41444059 206.28326223 324.62014701 211.6007576 323.86379051 C213.8326088 323.75046865 216.04579751 323.73475952 218.28046799 323.75224876 C219.54515915 323.74418961 219.54515915 323.74418961 220.83539963 323.73596764 C222.65886017 323.72621546 224.48236698 323.72323772 226.30585098 323.72632408 C229.1993263 323.73081887 232.09219537 323.71675324 234.98560715 323.69792747 C241.13368897 323.66120196 247.28170673 323.64745333 253.42988205 323.63701439 C260.54430562 323.62490461 267.65843308 323.60318181 274.77272415 323.55701256 C277.60987875 323.54352294 280.44665128 323.54759922 283.28382492 323.55241966 C295.94920817 323.51340608 306.63719912 322.67906653 316.67988205 314.13701439 C325.56724886 304.58988672 326.83628103 294.11898844 326.81359482 281.63120079 C326.81586037 280.70516023 326.81812593 279.77911967 326.82046014 278.82501727 C326.82676333 275.73849237 326.82597315 272.65201179 326.82514572 269.56548119 C326.8281395 267.34572353 326.83154253 265.1259664 326.83532333 262.90620995 C326.84414499 256.88753921 326.84650067 250.86888271 326.84713912 244.85020614 C326.84785063 241.08713747 326.84998686 237.32407241 326.85263634 233.56100464 C326.86140661 221.10237177 326.86605681 208.64374582 326.86530586 196.18511023 C326.86526591 195.51447542 326.86522595 194.84384061 326.86518478 194.15288353 C326.8651439 193.4814234 326.86510302 192.80996328 326.8650609 192.11815587 C326.86465457 181.23968352 326.87422276 170.3612458 326.88832315 159.48278346 C326.90271026 148.29422356 326.9094092 137.10567633 326.90872937 125.91710597 C326.90847476 119.643054 326.91130566 113.36904124 326.92190742 107.09499741 C326.93160921 101.1926335 326.93165328 95.29034615 326.92439079 89.38797951 C326.92334756 87.22692757 326.92569224 85.06587081 326.93175125 82.90482712 C327.36651868 60.54170046 327.36651868 60.54170046 317.0822258 41.32060814 C307.55046281 32.3296544 295.33030434 31.98579637 282.97852707 32.00330162 C281.80424424 32.00103606 280.62996141 31.99877051 279.42009425 31.9964363 C276.17348253 31.99121278 272.92690575 31.99044942 269.68029118 31.99163067 C266.17369124 31.99183521 262.66709949 31.98631084 259.16050339 31.9815731 C252.29500289 31.97327735 245.42951098 31.97051874 238.56400588 31.96996073 C232.98121839 31.96948503 227.39843372 31.96742761 221.81564713 31.9642601 C205.97551684 31.95545625 190.13539333 31.95084027 174.29526058 31.95159058 C173.44185363 31.95163053 172.58844669 31.95167049 171.70917892 31.95171165 C170.42749923 31.95177298 170.42749923 31.95177298 169.11992702 31.95183554 C155.2764919 31.95224187 141.43308399 31.94267478 127.58965674 31.92857329 C113.36365397 31.91419684 99.13766445 31.90730381 84.91165423 31.90816706 C76.92955167 31.90849861 68.94747763 31.90577025 60.96538162 31.89498901 C54.1685434 31.88586728 47.37174665 31.88372246 40.57490495 31.89049844 C37.11025865 31.89375528 33.64569182 31.89385069 30.18105316 31.88514519 C26.41702207 31.87741366 22.65319832 31.88207801 18.8891716 31.88977623 C17.80539459 31.88463267 16.72161757 31.8794891 15.60499883 31.87418967 C2.78639555 31.93193849 -8.53846733 33.67958779 -17.69511795 43.38701439 Z " fill="#000000" transform="translate(105.32011795043945,47.862985610961914)"/>
<path d="M0 0 C0.96461151 -0.00623996 1.92922302 -0.01247993 2.92306519 -0.01890898 C6.1520845 -0.03485099 9.38035022 -0.02222963 12.609375 -0.00964355 C14.92562297 -0.01506411 17.24186749 -0.0221864 19.55810547 -0.03088379 C25.84729455 -0.04912772 32.13622133 -0.042045 38.42541504 -0.02936745 C45.00497142 -0.01924544 51.58450524 -0.02863091 58.1640625 -0.03491211 C69.92148203 -0.04345692 81.67879115 -0.03022092 93.43619156 -0.00987476 C104.09293685 0.00799589 114.74950785 0.00489166 125.40625 -0.0135498 C137.78656125 -0.03496393 150.16676138 -0.04291967 162.54708862 -0.03110075 C169.0988178 -0.02486231 175.65042695 -0.02403996 182.20214844 -0.0372467 C188.36147014 -0.04879504 194.52046245 -0.04079758 200.67974854 -0.01766968 C202.94125827 -0.01237722 205.20279569 -0.01390548 207.46429443 -0.02272034 C210.54948815 -0.03363775 213.63362385 -0.01995733 216.71875 0 C218.06379105 -0.01338433 218.06379105 -0.01338433 219.43600464 -0.02703905 C224.90699322 0.04169025 228.0113852 0.87961933 232.359375 4.50793457 C235.98771163 8.32723629 236.66937958 11.39072463 236.859375 16.50793457 C236.66937958 21.62514451 235.98771163 24.68863285 232.359375 28.50793457 C227.15084932 32.85435073 223.20426948 33.08040571 216.71875 33.01586914 C215.75413849 33.0221091 214.78952698 33.02834907 213.79568481 33.03477812 C210.5666655 33.05072013 207.33839978 33.03809877 204.109375 33.0255127 C201.79312703 33.03093325 199.47688251 33.03805554 197.16064453 33.04675293 C190.87145545 33.06499686 184.58252867 33.05791414 178.29333496 33.04523659 C171.71377858 33.03511458 165.13424476 33.04450005 158.5546875 33.05078125 C146.79726797 33.05932606 135.03995885 33.04609006 123.28255844 33.0257439 C112.62581315 33.00787325 101.96924215 33.01097748 91.3125 33.02941895 C78.93218875 33.05083307 66.55198862 33.05878881 54.17166138 33.04696989 C47.6199322 33.04073145 41.06832305 33.0399091 34.51660156 33.05311584 C28.35727986 33.06466418 22.19828755 33.05666672 16.03900146 33.03353882 C13.77749173 33.02824636 11.51595431 33.02977462 9.25445557 33.03858948 C6.16926185 33.04950689 3.08512615 33.03582647 0 33.01586914 C-1.34504105 33.02925347 -1.34504105 33.02925347 -2.71725464 33.04290819 C-8.18824322 32.97417889 -11.2926352 32.13624981 -15.640625 28.50793457 C-19.26896163 24.68863285 -19.95062958 21.62514451 -20.140625 16.50793457 C-19.95062958 11.39072463 -19.26896163 8.32723629 -15.640625 4.50793457 C-10.43209932 0.16151841 -6.48551948 -0.06453657 0 0 Z " fill="#000000" transform="translate(147.640625,271.4920654296875)"/>
<path d="M0 0 C0.96461151 -0.00623996 1.92922302 -0.01247993 2.92306519 -0.01890898 C6.1520845 -0.03485099 9.38035022 -0.02222963 12.609375 -0.00964355 C14.92562297 -0.01506411 17.24186749 -0.0221864 19.55810547 -0.03088379 C25.84729455 -0.04912772 32.13622133 -0.042045 38.42541504 -0.02936745 C45.00497142 -0.01924544 51.58450524 -0.02863091 58.1640625 -0.03491211 C69.92148203 -0.04345692 81.67879115 -0.03022092 93.43619156 -0.00987476 C104.09293685 0.00799589 114.74950785 0.00489166 125.40625 -0.0135498 C137.78656125 -0.03496393 150.16676138 -0.04291967 162.54708862 -0.03110075 C169.0988178 -0.02486231 175.65042695 -0.02403996 182.20214844 -0.0372467 C188.36147014 -0.04879504 194.52046245 -0.04079758 200.67974854 -0.01766968 C202.94125827 -0.01237722 205.20279569 -0.01390548 207.46429443 -0.02272034 C210.54948815 -0.03363775 213.63362385 -0.01995733 216.71875 0 C218.06379105 -0.01338433 218.06379105 -0.01338433 219.43600464 -0.02703905 C224.90699322 0.04169025 228.0113852 0.87961933 232.359375 4.50793457 C235.98771163 8.32723629 236.66937958 11.39072463 236.859375 16.50793457 C236.66937958 21.62514451 235.98771163 24.68863285 232.359375 28.50793457 C227.15084932 32.85435073 223.20426948 33.08040571 216.71875 33.01586914 C215.75413849 33.0221091 214.78952698 33.02834907 213.79568481 33.03477812 C210.5666655 33.05072013 207.33839978 33.03809877 204.109375 33.0255127 C201.79312703 33.03093325 199.47688251 33.03805554 197.16064453 33.04675293 C190.87145545 33.06499686 184.58252867 33.05791414 178.29333496 33.04523659 C171.71377858 33.03511458 165.13424476 33.04450005 158.5546875 33.05078125 C146.79726797 33.05932606 135.03995885 33.04609006 123.28255844 33.0257439 C112.62581315 33.00787325 101.96924215 33.01097748 91.3125 33.02941895 C78.93218875 33.05083307 66.55198862 33.05878881 54.17166138 33.04696989 C47.6199322 33.04073145 41.06832305 33.0399091 34.51660156 33.05311584 C28.35727986 33.06466418 22.19828755 33.05666672 16.03900146 33.03353882 C13.77749173 33.02824636 11.51595431 33.02977462 9.25445557 33.03858948 C6.16926185 33.04950689 3.08512615 33.03582647 0 33.01586914 C-1.34504105 33.02925347 -1.34504105 33.02925347 -2.71725464 33.04290819 C-8.18824322 32.97417889 -11.2926352 32.13624981 -15.640625 28.50793457 C-19.26896163 24.68863285 -19.95062958 21.62514451 -20.140625 16.50793457 C-19.95062958 11.39072463 -19.26896163 8.32723629 -15.640625 4.50793457 C-10.43209932 0.16151841 -6.48551948 -0.06453657 0 0 Z " fill="#000000" transform="translate(147.640625,207.4920654296875)"/>
<path d="M0 0 C0.96461151 -0.00623996 1.92922302 -0.01247993 2.92306519 -0.01890898 C6.1520845 -0.03485099 9.38035022 -0.02222963 12.609375 -0.00964355 C14.92562297 -0.01506411 17.24186749 -0.0221864 19.55810547 -0.03088379 C25.84729455 -0.04912772 32.13622133 -0.042045 38.42541504 -0.02936745 C45.00497142 -0.01924544 51.58450524 -0.02863091 58.1640625 -0.03491211 C69.92148203 -0.04345692 81.67879115 -0.03022092 93.43619156 -0.00987476 C104.09293685 0.00799589 114.74950785 0.00489166 125.40625 -0.0135498 C137.78656125 -0.03496393 150.16676138 -0.04291967 162.54708862 -0.03110075 C169.0988178 -0.02486231 175.65042695 -0.02403996 182.20214844 -0.0372467 C188.36147014 -0.04879504 194.52046245 -0.04079758 200.67974854 -0.01766968 C202.94125827 -0.01237722 205.20279569 -0.01390548 207.46429443 -0.02272034 C210.54948815 -0.03363775 213.63362385 -0.01995733 216.71875 0 C218.06379105 -0.01338433 218.06379105 -0.01338433 219.43600464 -0.02703905 C224.90699322 0.04169025 228.0113852 0.87961933 232.359375 4.50793457 C235.98771163 8.32723629 236.66937958 11.39072463 236.859375 16.50793457 C236.66937958 21.62514451 235.98771163 24.68863285 232.359375 28.50793457 C227.15084932 32.85435073 223.20426948 33.08040571 216.71875 33.01586914 C215.75413849 33.0221091 214.78952698 33.02834907 213.79568481 33.03477812 C210.5666655 33.05072013 207.33839978 33.03809877 204.109375 33.0255127 C201.79312703 33.03093325 199.47688251 33.03805554 197.16064453 33.04675293 C190.87145545 33.06499686 184.58252867 33.05791414 178.29333496 33.04523659 C171.71377858 33.03511458 165.13424476 33.04450005 158.5546875 33.05078125 C146.79726797 33.05932606 135.03995885 33.04609006 123.28255844 33.0257439 C112.62581315 33.00787325 101.96924215 33.01097748 91.3125 33.02941895 C78.93218875 33.05083307 66.55198862 33.05878881 54.17166138 33.04696989 C47.6199322 33.04073145 41.06832305 33.0399091 34.51660156 33.05311584 C28.35727986 33.06466418 22.19828755 33.05666672 16.03900146 33.03353882 C13.77749173 33.02824636 11.51595431 33.02977462 9.25445557 33.03858948 C6.16926185 33.04950689 3.08512615 33.03582647 0 33.01586914 C-1.34504105 33.02925347 -1.34504105 33.02925347 -2.71725464 33.04290819 C-8.18824322 32.97417889 -11.2926352 32.13624981 -15.640625 28.50793457 C-19.26896163 24.68863285 -19.95062958 21.62514451 -20.140625 16.50793457 C-19.95062958 11.39072463 -19.26896163 8.32723629 -15.640625 4.50793457 C-10.43209932 0.16151841 -6.48551948 -0.06453657 0 0 Z " fill="#000000" transform="translate(147.640625,143.4920654296875)"/>
</svg>
