<?xml version="1.0" encoding="UTF-8"?>
<svg version="1.1" xmlns="http://www.w3.org/2000/svg" width="512" height="512">
<path d="M0 0 C2.74366692 1.44224615 3.80037194 2.3789113 5.20703125 5.16015625 C5.48254987 10.62233654 4.96848924 14.97235704 3.41650391 20.25927734 C3.22358702 20.92748473 3.03067013 21.59569212 2.83190727 22.28414822 C2.18837512 24.50370563 1.52974741 26.71848103 0.87109375 28.93359375 C0.40394421 30.53387345 -0.06221561 32.13444235 -0.52746582 33.73527527 C-1.53247589 37.1858791 -2.54411647 40.6344426 -3.56097412 44.08157349 C-5.19734971 49.62931538 -6.81883456 55.18134193 -8.43798828 60.73413086 C-10.145187 66.58621739 -11.85346872 72.43797807 -13.56686401 78.28825378 C-17.49178486 91.68973895 -21.38956972 105.09879841 -25.26171875 118.515625 C-25.5253484 119.42906425 -25.78897804 120.34250351 -26.06059647 121.28362274 C-27.39398924 125.90430086 -28.72682216 130.52514024 -30.05938721 135.14605713 C-32.50341827 143.62036337 -34.95193731 152.09337336 -37.39998245 160.56652069 C-38.77042813 165.3100793 -40.14056707 170.05372651 -41.51074219 174.79736328 C-44.50315256 185.15703351 -47.4958365 195.5166247 -50.48862267 205.87618637 C-51.30157586 208.69025057 -52.11451183 211.50431975 -52.92744446 214.31838989 C-55.34901546 222.70089507 -57.77070707 231.08336532 -60.19298649 239.46566582 C-61.52978256 244.09166983 -62.86647913 248.71770259 -64.203125 253.34375 C-64.46846731 254.26207485 -64.73380962 255.1803997 -65.00719261 256.12655258 C-68.76157274 269.12082357 -72.51125375 282.1164438 -76.25790405 295.11294556 C-78.37307342 302.45003842 -80.48944466 309.78678446 -82.60608482 317.12345314 C-84.33309096 323.11000186 -86.05848604 329.09701178 -87.78266811 335.08437443 C-88.84630466 338.77647726 -89.91148938 342.46813211 -90.97709846 346.15966606 C-91.46933111 347.86607547 -91.9609222 349.5726701 -92.45181084 351.27946663 C-99.59297139 376.10561272 -99.59297139 376.10561272 -103.79296875 379.16015625 C-108.0978171 380.60344843 -111.75517567 379.52918998 -116.04296875 378.47265625 C-116.80424072 378.28840088 -117.5655127 378.10414551 -118.34985352 377.91430664 C-131.10372723 374.69401854 -131.10372723 374.69401854 -134.79296875 369.16015625 C-135.13876632 363.69559256 -134.55433628 359.34764732 -133.00244141 354.06103516 C-132.80952452 353.39282777 -132.61660763 352.72462038 -132.41784477 352.03616428 C-131.77431262 349.81660687 -131.11568491 347.60183147 -130.45703125 345.38671875 C-129.98988171 343.78643905 -129.52372189 342.18587015 -129.05847168 340.58503723 C-128.05346161 337.1344334 -127.04182103 333.6858699 -126.02496338 330.23873901 C-124.38858779 324.69099712 -122.76710294 319.13897057 -121.14794922 313.58618164 C-119.4407505 307.73409511 -117.73246878 301.88233443 -116.01907349 296.03205872 C-112.09415264 282.63057355 -108.19636778 269.22151409 -104.32421875 255.8046875 C-104.0605891 254.89124825 -103.79695946 253.97780899 -103.52534103 253.03668976 C-102.19194826 248.41601164 -100.85911534 243.79517226 -99.52655029 239.17425537 C-97.08251923 230.69994913 -94.63400019 222.22693914 -92.18595505 213.75379181 C-90.81550937 209.0102332 -89.44537043 204.26658599 -88.07519531 199.52294922 C-85.08278494 189.16327899 -82.090101 178.8036878 -79.09731483 168.44412613 C-78.28436164 165.63006193 -77.47142567 162.81599275 -76.65849304 160.00192261 C-74.23692204 151.61941743 -71.81523043 143.23694718 -69.39295101 134.85464668 C-68.05615494 130.22864267 -66.71945837 125.60260991 -65.3828125 120.9765625 C-65.11747019 120.05823765 -64.85212788 119.1399128 -64.57874489 118.19375992 C-60.82436476 105.19948893 -57.07468375 92.2038687 -53.32803345 79.20736694 C-51.21286408 71.87027408 -49.09649284 64.53352804 -46.97985268 57.19685936 C-45.25284654 51.21031064 -43.52745146 45.22330072 -41.80326939 39.23593807 C-40.73963284 35.54383524 -39.67444812 31.85218039 -38.60883904 28.16064644 C-38.11660639 26.45423703 -37.6250153 24.7476424 -37.13412666 23.04084587 C-30.02797618 -1.66358817 -30.02797618 -1.66358817 -25.79296875 -4.83984375 C-18.06798929 -7.4148369 -7.46710541 -2.58605899 0 0 Z " fill="#000000" transform="translate(320.79296875,68.83984375)"/>
<path d="M0 0 C3.04946921 1.93647728 5.46465951 4.44276538 8 7 C8.97155825 7.94904202 9.94428248 8.89689139 10.91796875 9.84375 C19.75136177 18.50486054 19.75136177 18.50486054 20.58912659 23.54260254 C20.47383928 29.80124768 15.81581397 33.22637511 11.57397461 37.31835938 C10.6781366 38.21375931 9.78229858 39.10915924 8.85931396 40.0316925 C6.40739148 42.48164327 3.93169822 44.90622384 1.45111537 47.32710457 C-1.14809396 49.87239847 -3.72411235 52.44094585 -6.30259705 55.00720215 C-11.19434657 59.86893715 -16.10568283 64.71036064 -21.02478832 69.54439878 C-28.2232808 76.62030746 -35.39035361 83.72792587 -42.55947781 90.83356476 C-43.62210531 91.88666296 -44.68475297 92.93974081 -45.74742126 93.99279785 C-46.26680643 94.50752923 -46.7861916 95.0222606 -47.32131571 95.55258989 C-50.39030688 98.5928032 -53.46428298 101.6278605 -56.54308808 104.65813446 C-58.00169721 106.09400476 -59.45921045 107.53097827 -60.91638184 108.9683075 C-62.68444517 110.71163574 -64.45453534 112.45291209 -66.22715759 114.19160461 C-70.50654777 118.41596341 -74.61365028 122.71165457 -78.51644039 127.28768158 C-80.70865017 129.81792112 -83.05393637 132.14908792 -85.4375 134.5 C-86.30246094 135.3559375 -87.16742188 136.211875 -88.05859375 137.09375 C-88.69925781 137.7228125 -89.33992188 138.351875 -90 139 C-88.68516427 141.91834217 -87.28366724 143.94920929 -84.98828125 146.171875 C-84.39466797 146.75453125 -83.80105469 147.3371875 -83.18945312 147.9375 C-82.57005859 148.535625 -81.95066406 149.13375 -81.3125 149.75 C-77.67182656 153.28509 -74.10919877 156.81601927 -70.81907654 160.68347168 C-66.83030654 165.26751141 -62.55815681 169.51738213 -58.21899414 173.76757812 C-56.46005744 175.5002124 -54.70119545 177.23292254 -52.94239807 178.96569824 C-52.02019533 179.87242783 -51.09799259 180.77915741 -50.14784431 181.71336365 C-47.24717335 184.56668856 -44.35439367 187.42792537 -41.46348572 190.2911377 C-40.97344797 190.77643621 -40.48341022 191.26173472 -39.97852284 191.76173925 C-38.97757833 192.75308502 -37.97666406 193.74446131 -36.97577941 194.7358675 C-30.25720978 201.39073591 -23.53481027 208.04142351 -16.78588867 214.66552734 C-12.21603284 219.15097912 -7.66052616 223.65046051 -3.12117475 228.16678762 C-0.72381741 230.55088482 1.68019231 232.92726847 4.10191154 235.28663635 C6.79496234 237.91703351 9.46217605 240.57123512 12.12475586 243.23242188 C13.32853127 244.3906974 13.32853127 244.3906974 14.55662537 245.57237244 C20.46714519 251.56109839 20.46714519 251.56109839 20.56373596 256.41394043 C20.00201199 259.98720126 19.68546349 261.31453651 17.1875 263.8125 C16.5584375 264.45960938 15.929375 265.10671875 15.28125 265.7734375 C14.5284375 266.50820313 13.775625 267.24296875 13 268 C12.05009728 268.96941206 11.1023011 269.94089127 10.15625 270.9140625 C1.49124255 279.76140119 1.49124255 279.76140119 -3.125 280.5 C-12.67613373 279.26759565 -20.8855221 267.25608836 -27.55053711 260.57885742 C-28.80110389 259.32964774 -30.05188286 258.08065044 -31.30285645 256.83184814 C-34.67864226 253.46059706 -38.05128659 250.08621989 -41.42321467 246.71111083 C-44.9566317 243.17515305 -48.49249804 239.64164586 -52.02796936 236.10774231 C-57.95672446 230.18080247 -63.88337657 224.25176588 -69.80883789 218.3215332 C-76.66443636 211.46047827 -83.52365019 204.60305353 -90.3847236 197.7474739 C-96.27968488 191.85704414 -102.17270337 185.96467607 -108.06408888 180.07066995 C-111.58132738 176.55187083 -115.09924196 173.03375478 -118.61890984 169.51738548 C-121.92161772 166.21755737 -125.22188675 162.91530964 -128.52025604 159.61114502 C-129.73322464 158.39685005 -130.94705265 157.18341287 -132.16178322 155.97088051 C-133.81422697 154.32115264 -135.46358616 152.66840268 -137.11216736 151.01481628 C-138.03739669 150.08920993 -138.96262602 149.16360357 -139.9158926 148.20994854 C-142.9343545 145.00922795 -143.54775477 142.6270128 -143.45343304 138.17900181 C-142.90551803 135.54596077 -142.05890128 134.48404276 -140.24507141 132.51097107 C-139.60434 131.81384443 -138.96360859 131.1167178 -138.30346107 130.39846611 C-133.45722907 125.35235383 -128.5303177 120.39186452 -123.57885742 115.44946289 C-122.32964774 114.19889611 -121.08065044 112.94811714 -119.83184814 111.69714355 C-116.46059706 108.32135774 -113.08621989 104.94871341 -109.71111083 101.57678533 C-106.17515305 98.0433683 -102.64164586 94.50750196 -99.10774231 90.97203064 C-93.18080247 85.04327554 -87.25176588 79.11662343 -81.3215332 73.19116211 C-74.46047827 66.33556364 -67.60305353 59.47634981 -60.7474739 52.6152764 C-54.85704414 46.72031512 -48.96467607 40.82729663 -43.07066995 34.93591112 C-39.55187083 31.41867262 -36.03375478 27.90075804 -32.51738548 24.38109016 C-29.21755737 21.07838228 -25.91530964 17.77811325 -22.61114502 14.47974396 C-21.39685005 13.26677536 -20.18341287 12.05294735 -18.97088051 10.83821678 C-17.32115264 9.18577303 -15.66840268 7.53641384 -14.01481628 5.88783264 C-13.08920993 4.96260331 -12.16360357 4.03737398 -11.20994854 3.0841074 C-7.52242451 -0.39343788 -5.0452227 -0.65099648 0 0 Z " fill="#000000" transform="translate(143,116)"/>
<path d="M0 0 C7.64158558 5.17865691 14.03405946 12.89272124 20.55053711 19.42114258 C21.80110389 20.67035226 23.05188286 21.91934956 24.30285645 23.16815186 C27.67864226 26.53940294 31.05128659 29.91378011 34.42321467 33.28888917 C37.9566317 36.82484695 41.49249804 40.35835414 45.02796936 43.89225769 C50.95672446 49.81919753 56.88337657 55.74823412 62.80883789 61.6784668 C69.66443636 68.53952173 76.52365019 75.39694647 83.3847236 82.2525261 C89.27968488 88.14295586 95.17270337 94.03532393 101.06408888 99.92933005 C104.58132738 103.44812917 108.09924196 106.96624522 111.61890984 110.48261452 C114.92161772 113.78244263 118.22188675 117.08469036 121.52025604 120.38885498 C122.73322464 121.60314995 123.94705265 122.81658713 125.16178322 124.02911949 C126.81422697 125.67884736 128.46358616 127.33159732 130.11216736 128.98518372 C131.50001135 130.37359325 131.50001135 130.37359325 132.9158926 131.79005146 C135.9343545 134.99077205 136.54775477 137.3729872 136.45343304 141.82099819 C135.90551803 144.45403923 135.05890128 145.51595724 133.24507141 147.48902893 C132.60434 148.18615557 131.96360859 148.8832822 131.30346107 149.60153389 C126.45722907 154.64764617 121.5303177 159.60813548 116.57885742 164.55053711 C115.32964774 165.80110389 114.08065044 167.05188286 112.83184814 168.30285645 C109.46059706 171.67864226 106.08621989 175.05128659 102.71111083 178.42321467 C99.17515305 181.9566317 95.64164586 185.49249804 92.10774231 189.02796936 C86.18080247 194.95672446 80.25176588 200.88337657 74.3215332 206.80883789 C67.46047827 213.66443636 60.60305353 220.52365019 53.7474739 227.3847236 C47.85704414 233.27968488 41.96467607 239.17270337 36.07066995 245.06408888 C32.55187083 248.58132738 29.03375478 252.09924196 25.51738548 255.61890984 C22.21755737 258.92161772 18.91530964 262.22188675 15.61114502 265.52025604 C14.39685005 266.73322464 13.18341287 267.94705265 11.97088051 269.16178322 C10.32115264 270.81422697 8.66840268 272.46358616 7.01481628 274.11216736 C6.08920993 275.03739669 5.16360357 275.96262602 4.20994854 276.9158926 C1.53830556 279.43540417 0.51458006 279.91766719 -3.125 280.5 C-8.74350204 279.77503199 -11.10816436 276.92544389 -15 273 C-15.97155825 272.05095798 -16.94428248 271.10310861 -17.91796875 270.15625 C-26.68127544 261.56385887 -26.68127544 261.56385887 -27.69934082 256.56860352 C-27.56554536 249.73463227 -21.38550299 245.34743269 -16.81054688 240.90234375 C-15.71524624 239.80930091 -14.62170659 238.71449103 -13.52980042 237.61805725 C-10.56613576 234.65209965 -7.57847656 231.71143437 -4.58587074 228.77471924 C-1.46055824 225.69945789 1.64207494 222.60148662 4.74719238 219.50585938 C10.62805474 213.64985002 16.52900888 207.81452943 22.43746805 201.98637962 C29.16410272 195.34920135 35.86800265 188.68925965 42.57009602 182.02731514 C56.35493185 168.32607296 70.16803846 154.65365703 84 141 C82.48186028 137.4161217 80.38256199 135.15376408 77.62142944 132.43475342 C76.70153732 131.52367325 75.7816452 130.61259308 74.83387756 129.67390442 C73.81167564 128.67153849 72.78941096 127.66923655 71.76708984 126.66699219 C70.69243066 125.6059966 69.61826993 124.54449594 68.54457092 123.48252869 C66.23294488 121.19754811 63.91854671 118.91542508 61.6021843 116.63524628 C57.93948827 113.02824538 54.28764192 109.41039585 50.63809204 105.7901001 C49.38802655 104.55032212 48.13794824 103.31055705 46.88785744 102.0708046 C46.26188455 101.45000283 45.63591166 100.82920106 44.9909699 100.18958712 C36.49366137 91.76436066 27.98711736 83.34863318 19.45996094 74.95361328 C13.70619791 69.28883738 7.96678538 63.6099404 2.24325144 57.91461873 C-0.78547383 54.90204016 -3.8211996 51.89733957 -6.87477493 48.909935 C-9.74671704 46.10011982 -12.59953043 43.27223052 -15.43882942 40.42944527 C-16.48321328 39.39045107 -17.5344672 38.35830969 -18.5929966 37.3337307 C-27.58497595 28.61780949 -27.58497595 28.61780949 -27.69491577 23.45587158 C-27.00815226 20.04054183 -26.60488536 18.60488536 -24.1875 16.1875 C-23.5584375 15.54039062 -22.929375 14.89328125 -22.28125 14.2265625 C-21.5284375 13.49179688 -20.775625 12.75703125 -20 12 C-19.05009728 11.03058794 -18.1023011 10.05910873 -17.15625 9.0859375 C-7.3311064 -0.94594921 -7.3311064 -0.94594921 0 0 Z " fill="#000000" transform="translate(376,116)"/>
</svg>
